<svg width="60" height="20" viewBox="0 0 60 20" fill="none" xmlns="http://www.w3.org/2000/svg">
<path d="M55.0672 6.49998e-05H4.76732C4.58398 6.49998e-05 4.40283 6.49998e-05 4.21996 0.001065C4.06689 0.00206499 3.91503 0.00496998 3.76049 0.00741498C3.42475 0.0113659 3.08979 0.040903 2.75854 0.0957697C2.42775 0.151831 2.10733 0.257522 1.8081 0.409269C1.50924 0.562299 1.23617 0.761146 0.998782 0.998597C0.760149 1.23538 0.56123 1.50907 0.409674 1.80914C0.257699 2.10861 0.15232 2.42953 0.0971747 2.7608C0.0415053 3.09165 0.0115492 3.42631 0.00757498 3.76179C0.00293499 3.91509 0.00244499 4.0689 0 4.22222V15.7793C0.00244499 15.9346 0.00293499 16.085 0.00757498 16.2403C0.0115504 16.5757 0.0415066 16.9104 0.0971747 17.2412C0.152167 17.5727 0.257553 17.8938 0.409674 18.1934C0.561161 18.4925 0.760108 18.765 0.998782 19.0005C1.23527 19.239 1.50852 19.438 1.8081 19.5899C2.10733 19.742 2.42772 19.8483 2.75854 19.9053C3.08985 19.9597 3.42477 19.9892 3.76049 19.9937C3.91503 19.9971 4.06689 19.999 4.21996 19.999C4.40282 20 4.58399 20 4.76732 20H55.0672C55.2469 20 55.4295 20 55.6092 19.999C55.7616 19.999 55.9178 19.9971 56.0702 19.9937C56.4052 19.9895 56.7395 19.9599 57.0701 19.9053C57.402 19.8479 57.7236 19.7416 58.0242 19.5899C58.3236 19.4379 58.5966 19.2389 58.8328 19.0005C59.0709 18.7641 59.2703 18.4917 59.4236 18.1934C59.5746 17.8936 59.679 17.5725 59.7332 17.2412C59.7889 16.9103 59.82 16.5758 59.826 16.2403C59.8279 16.085 59.8279 15.9346 59.8279 15.7793C59.8318 15.5977 59.8318 15.417 59.8318 15.2324V4.76811C59.8318 4.58501 59.8318 4.40337 59.8279 4.22222C59.8279 4.0689 59.8279 3.91509 59.826 3.76177C59.82 3.42627 59.7889 3.09167 59.7332 2.76078C59.6788 2.4297 59.5745 2.10881 59.4236 1.80912C59.115 1.20766 58.6256 0.718075 58.0242 0.409224C57.7236 0.257848 57.402 0.152185 57.0701 0.0957247C56.7396 0.0406163 56.4053 0.0110688 56.0702 0.00734498C55.9178 0.00490498 55.7616 0.00197499 55.6092 0.000999997C55.4295 0 55.2469 0 55.0672 0V6.49998e-05Z" fill="#A6A6A6"/>
<path d="M4.2234 19.5605C4.07106 19.5605 3.9224 19.5585 3.77125 19.5551C3.45815 19.5511 3.14577 19.5238 2.83669 19.4736C2.54848 19.4239 2.26929 19.3316 2.00832 19.1996C1.74974 19.0687 1.5139 18.8971 1.30982 18.6913C1.10279 18.488 0.930432 18.2521 0.799569 17.9931C0.667264 17.7324 0.575701 17.4529 0.52807 17.1645C0.476632 16.8546 0.448802 16.5412 0.44482 16.227C0.44165 16.1215 0.4375 15.7704 0.4375 15.7704V4.2202C0.4375 4.2202 0.44192 3.8745 0.444845 3.77294C0.448658 3.45928 0.476326 3.14636 0.52761 2.8369C0.575329 2.54767 0.666963 2.26742 0.799339 2.00586C0.929721 1.74701 1.10113 1.51097 1.30691 1.30688C1.51246 1.10086 1.74906 0.928347 2.00808 0.795651C2.26845 0.664093 2.54711 0.572413 2.83473 0.523682C3.14483 0.472965 3.45829 0.445545 3.77248 0.441652L4.22364 0.435547H55.6078L56.0643 0.441897C56.3756 0.445596 56.6863 0.472772 56.9935 0.523192C57.284 0.572534 57.5656 0.664854 57.8289 0.797116C58.3479 1.06454 58.7701 1.48763 59.0364 2.00708C59.1667 2.26683 59.2569 2.54479 59.304 2.83153C59.3559 3.14353 59.385 3.45891 59.3909 3.77514C59.3924 3.91674 59.3924 4.06883 59.3924 4.2202C59.3963 4.4077 59.3963 4.58617 59.3963 4.7661V15.2304C59.3963 15.412 59.3963 15.5893 59.3924 15.768C59.3924 15.9306 59.3924 16.0795 59.3904 16.2328C59.3846 16.5434 59.3561 16.8532 59.305 17.1596C59.2583 17.4501 59.1673 17.7317 59.035 17.9946C58.9032 18.2508 58.7318 18.4846 58.5272 18.6874C58.3229 18.8943 58.0867 19.067 57.8275 19.1987C57.5649 19.3317 57.2837 19.4244 56.9935 19.4736C56.6844 19.5241 56.372 19.5513 56.0589 19.5551C55.9125 19.5585 55.7591 19.5605 55.6102 19.5605L55.0682 19.5615L4.2234 19.5605Z" fill="black"/>
<path d="M12.383 10.1521C12.3884 9.73478 12.4992 9.32559 12.7052 8.96261C12.9113 8.59964 13.2057 8.29467 13.5613 8.07608C13.3354 7.75351 13.0374 7.48804 12.691 7.30076C12.3446 7.11348 11.9593 7.00956 11.5657 6.99725C10.7261 6.90912 9.91212 7.49966 9.48427 7.49966C9.04813 7.49966 8.38939 7.006 7.68002 7.02059C7.22119 7.03542 6.77402 7.16884 6.38208 7.40787C5.99014 7.6469 5.6668 7.98338 5.44357 8.38452C4.47657 10.0587 5.19787 12.5192 6.12417 13.8725C6.58762 14.5352 7.12925 15.2754 7.83798 15.2492C8.5315 15.2204 8.79052 14.807 9.62767 14.807C10.457 14.807 10.7001 15.2492 11.4232 15.2325C12.1674 15.2204 12.6362 14.5669 13.0834 13.8979C13.4164 13.4258 13.6726 12.9039 13.8426 12.3517C13.4103 12.1688 13.0413 11.8627 12.7818 11.4716C12.5222 11.0804 12.3835 10.6215 12.383 10.1521Z" fill="white"/>
<path d="M11.0178 6.10859C11.4236 5.62148 11.6235 4.9954 11.5751 4.36328C10.9551 4.42839 10.3825 4.72467 9.97128 5.19308C9.77021 5.42192 9.61621 5.68813 9.51809 5.97652C9.41996 6.2649 9.37964 6.5698 9.39942 6.87377C9.70949 6.87697 10.0162 6.80976 10.2966 6.67722C10.5769 6.54467 10.8235 6.35025 11.0178 6.10859Z" fill="white"/>
<path d="M21.1484 13.5718H18.7817L18.2134 15.25H17.2109L19.4526 9.04102H20.4941L22.7358 15.25H21.7163L21.1484 13.5718ZM19.0268 12.7974H20.9028L19.978 10.0737H19.9522L19.0268 12.7974Z" fill="white"/>
<path d="M27.5767 12.9857C27.5767 14.3924 26.8237 15.2962 25.6875 15.2962C25.3997 15.3113 25.1134 15.245 24.8615 15.1049C24.6096 14.9648 24.4023 14.7567 24.2632 14.5042H24.2417V16.7464H23.3125V10.722H24.2119V11.475H24.229C24.3745 11.2237 24.5854 11.0166 24.8392 10.8757C25.093 10.7348 25.3803 10.6653 25.6704 10.6747C26.8193 10.6747 27.5767 11.5829 27.5767 12.9857ZM26.6216 12.9857C26.6216 12.0692 26.148 11.4667 25.4253 11.4667C24.7153 11.4667 24.2378 12.0819 24.2378 12.9857C24.2378 13.8978 24.7153 14.5086 25.4253 14.5086C26.148 14.5086 26.6216 13.9105 26.6216 12.9857Z" fill="white"/>
<path d="M32.561 12.9857C32.561 14.3924 31.8081 15.2962 30.6719 15.2962C30.3841 15.3113 30.0978 15.245 29.8459 15.1049C29.594 14.9648 29.3867 14.7567 29.2476 14.5042H29.2261V16.7464H28.2969V10.722H29.1963V11.475H29.2134C29.3589 11.2237 29.5697 11.0166 29.8235 10.8757C30.0773 10.7348 30.3646 10.6653 30.6548 10.6747C31.8037 10.6747 32.561 11.5829 32.561 12.9857ZM31.606 12.9857C31.606 12.0692 31.1323 11.4667 30.4097 11.4667C29.6997 11.4667 29.2222 12.0819 29.2222 12.9857C29.2222 13.8978 29.6997 14.5086 30.4097 14.5086C31.1323 14.5086 31.606 13.9105 31.606 12.9857H31.606Z" fill="white"/>
<path d="M35.8535 13.52C35.9224 14.1358 36.5205 14.54 37.3379 14.54C38.1211 14.54 38.6846 14.1357 38.6846 13.5806C38.6846 13.0986 38.3447 12.8101 37.54 12.6123L36.7354 12.4184C35.5952 12.1431 35.0659 11.6099 35.0659 10.7446C35.0659 9.67334 35.9995 8.9375 37.3252 8.9375C38.6372 8.9375 39.5366 9.67334 39.5669 10.7446H38.6289C38.5727 10.125 38.0605 9.75098 37.312 9.75098C36.5635 9.75098 36.0513 10.1294 36.0513 10.6802C36.0513 11.1191 36.3784 11.3774 37.1787 11.5752L37.8628 11.7431C39.1367 12.0444 39.666 12.5561 39.666 13.4643C39.666 14.6259 38.7407 15.3535 37.269 15.3535C35.8921 15.3535 34.9624 14.643 34.9023 13.52L35.8535 13.52Z" fill="white"/>
<path d="M41.6699 9.6543V10.7256H42.5307V11.4614H41.6699V13.957C41.6699 14.3447 41.8423 14.5254 42.2207 14.5254C42.3229 14.5236 42.4249 14.5164 42.5264 14.5039V15.2353C42.3562 15.2671 42.1833 15.2815 42.0102 15.2783C41.0937 15.2783 40.7363 14.934 40.7363 14.0561V11.4614H40.0781V10.7256H40.7363V9.6543H41.6699Z" fill="white"/>
<path d="M43.0273 12.9892C43.0273 11.5649 43.8662 10.6699 45.1743 10.6699C46.4868 10.6699 47.3218 11.5649 47.3218 12.9892C47.3218 14.4175 46.4912 15.3086 45.1743 15.3086C43.8579 15.3086 43.0273 14.4175 43.0273 12.9892ZM46.375 12.9892C46.375 12.0122 45.9272 11.4355 45.1743 11.4355C44.4214 11.4355 43.9741 12.0166 43.9741 12.9892C43.9741 13.9702 44.4214 14.5425 45.1743 14.5425C45.9272 14.5425 46.375 13.9702 46.375 12.9892H46.375Z" fill="white"/>
<path d="M48.0898 10.722H48.9761V11.4925H48.9976C49.0575 11.2518 49.1985 11.0392 49.3968 10.8902C49.5951 10.7413 49.8386 10.6652 50.0864 10.6746C50.1935 10.6742 50.3003 10.6859 50.4048 10.7093V11.5784C50.2696 11.5371 50.1286 11.5181 49.9873 11.5223C49.8523 11.5168 49.7177 11.5406 49.5928 11.592C49.4679 11.6435 49.3556 11.7213 49.2636 11.8203C49.1716 11.9192 49.1021 12.0369 49.0599 12.1653C49.0177 12.2936 49.0038 12.4295 49.019 12.5638V15.2488H48.0898L48.0898 10.722Z" fill="white"/>
<path d="M54.689 13.9228C54.564 14.7446 53.7637 15.3086 52.7397 15.3086C51.4228 15.3086 50.6055 14.4263 50.6055 13.0107C50.6055 11.5908 51.4272 10.6699 52.7007 10.6699C53.9531 10.6699 54.7407 11.5303 54.7407 12.9028V13.2212H51.5435V13.2773C51.5287 13.4439 51.5496 13.6118 51.6046 13.7697C51.6597 13.9276 51.7478 14.072 51.863 14.1933C51.9782 14.3145 52.1178 14.4099 52.2727 14.4731C52.4276 14.5362 52.5941 14.5657 52.7612 14.5596C52.9808 14.5801 53.2012 14.5293 53.3895 14.4146C53.5779 14.2998 53.7242 14.1274 53.8066 13.9228L54.689 13.9228ZM51.5478 12.5718H53.811C53.8194 12.422 53.7967 12.2721 53.7443 12.1315C53.692 11.9909 53.6111 11.8626 53.5069 11.7547C53.4026 11.6468 53.2772 11.5617 53.1385 11.5046C52.9997 11.4474 52.8507 11.4196 52.7007 11.4228C52.5494 11.4219 52.3994 11.451 52.2593 11.5084C52.1193 11.5658 51.9921 11.6503 51.8849 11.7571C51.7777 11.8639 51.6927 11.9909 51.6349 12.1307C51.577 12.2706 51.5475 12.4205 51.5478 12.5718V12.5718Z" fill="white"/>
<path d="M18.9097 4.36667C19.1045 4.35269 19.2999 4.38212 19.482 4.45283C19.6641 4.52355 19.8282 4.63379 19.9624 4.7756C20.0967 4.91741 20.1979 5.08726 20.2586 5.2729C20.3193 5.45853 20.338 5.65533 20.3135 5.84908C20.3135 6.8022 19.7983 7.35008 18.9097 7.35008H17.832V4.36667H18.9097ZM18.2954 6.92816H18.8579C18.9971 6.93648 19.1364 6.91366 19.2657 6.86135C19.3949 6.80904 19.5109 6.72857 19.6052 6.62578C19.6994 6.523 19.7696 6.4005 19.8105 6.26719C19.8514 6.13388 19.8621 5.99312 19.8418 5.85516C19.8606 5.71775 19.8489 5.57786 19.8073 5.44553C19.7657 5.3132 19.6954 5.1917 19.6014 5.08973C19.5074 4.98777 19.3919 4.90786 19.2634 4.85574C19.1349 4.80363 18.9964 4.78058 18.8579 4.78827H18.2954V6.92816Z" fill="white"/>
<path d="M22.8533 6.73978C22.793 6.94555 22.6622 7.12354 22.4838 7.24262C22.3055 7.36169 22.091 7.41427 21.8778 7.39114C21.7294 7.39506 21.582 7.36665 21.4458 7.30789C21.3095 7.24912 21.1877 7.16141 21.0887 7.05084C20.9898 6.94027 20.9161 6.80949 20.8727 6.66758C20.8294 6.52567 20.8174 6.37603 20.8377 6.22904C20.818 6.0816 20.8301 5.93163 20.8734 5.78929C20.9166 5.64696 20.9899 5.51558 21.0884 5.40404C21.1868 5.2925 21.3081 5.20342 21.4439 5.14281C21.5798 5.08221 21.7271 5.0515 21.8758 5.05277C22.5023 5.05277 22.8802 5.48077 22.8802 6.18777V6.34282H21.2904V6.36772C21.2834 6.45034 21.2938 6.53351 21.3209 6.61188C21.3479 6.69025 21.3911 6.76211 21.4475 6.82284C21.504 6.88356 21.5725 6.93183 21.6487 6.96452C21.7249 6.99722 21.8071 7.01364 21.89 7.01272C21.9963 7.02548 22.104 7.00634 22.1993 6.95773C22.2947 6.90913 22.3735 6.83326 22.4256 6.73977L22.8533 6.73978ZM21.2904 6.0142H22.4276C22.4332 5.93864 22.4229 5.86274 22.3974 5.79138C22.3719 5.72002 22.3318 5.65478 22.2796 5.59985C22.2274 5.54492 22.1643 5.50152 22.0943 5.47243C22.0244 5.44334 21.9491 5.42921 21.8734 5.43095C21.7965 5.42999 21.7202 5.44442 21.6491 5.47339C21.5779 5.50237 21.5132 5.5453 21.4589 5.59965C21.4046 5.65401 21.3617 5.71869 21.3327 5.78989C21.3038 5.86108 21.2894 5.93735 21.2904 6.0142H21.2904Z" fill="white"/>
<path d="M24.2998 5.05273C24.8061 5.05273 25.1372 5.28833 25.1807 5.6853H24.7544C24.7134 5.52002 24.5518 5.41455 24.2998 5.41455C24.0518 5.41455 23.8633 5.53223 23.8633 5.70801C23.8633 5.84251 23.9771 5.92725 24.2212 5.98315L24.5952 6.06982C25.0234 6.16919 25.2241 6.35327 25.2241 6.68408C25.2241 7.10791 24.8291 7.39111 24.2915 7.39111C23.7559 7.39111 23.4067 7.14916 23.3672 6.75024H23.812C23.8503 6.84519 23.9195 6.9245 24.0083 6.97546C24.0971 7.02642 24.2004 7.04606 24.3018 7.03124C24.5786 7.03124 24.7754 6.90724 24.7754 6.72728C24.7754 6.59301 24.6699 6.50609 24.4443 6.45238L24.0518 6.36132C23.6235 6.26 23.4253 6.06787 23.4253 5.7329C23.4253 5.33374 23.791 5.05273 24.2998 5.05273Z" fill="white"/>
<path d="M27.2912 5.83381C27.2629 5.71706 27.1937 5.61431 27.0961 5.54418C26.9986 5.47405 26.8791 5.44116 26.7594 5.45148C26.3874 5.45148 26.1598 5.73664 26.1598 6.21638C26.1598 6.70441 26.3893 6.99591 26.7594 6.99591C26.878 7.00964 26.9974 6.97961 27.0953 6.91145C27.1933 6.84329 27.2629 6.74171 27.2912 6.6258H27.7233C27.6947 6.85378 27.5782 7.06158 27.3986 7.20488C27.219 7.34818 26.9905 7.41565 26.7619 7.39289C26.6113 7.39764 26.4616 7.36945 26.3231 7.31028C26.1846 7.2511 26.0607 7.16239 25.96 7.05033C25.8594 6.93827 25.7844 6.80558 25.7404 6.66153C25.6964 6.51748 25.6844 6.36556 25.7053 6.21639C25.6855 6.06832 25.6982 5.91771 25.7427 5.77509C25.7871 5.63246 25.8621 5.50125 25.9625 5.39061C26.0629 5.27998 26.1862 5.19259 26.3239 5.13454C26.4615 5.07649 26.6102 5.04919 26.7595 5.05453C26.99 5.0333 27.2197 5.10285 27.3997 5.24839C27.5797 5.39393 27.6958 5.60397 27.7233 5.83382L27.2912 5.83381Z" fill="white"/>
<path d="M28.1719 6.71215C28.1719 6.30688 28.4736 6.07324 29.0093 6.04003L29.6191 6.00488V5.81054C29.6191 5.57275 29.4619 5.43848 29.1582 5.43848C28.9102 5.43848 28.7383 5.52954 28.689 5.68872H28.2588C28.3042 5.302 28.668 5.05396 29.1787 5.05396C29.7432 5.05396 30.0615 5.33496 30.0615 5.81054V7.34887H29.6338V7.03247H29.5986C29.5273 7.14596 29.4271 7.23849 29.3083 7.30059C29.1894 7.3627 29.0563 7.39216 28.9224 7.38596C28.8278 7.3958 28.7323 7.38571 28.6419 7.35636C28.5516 7.32701 28.4683 7.27905 28.3976 7.21557C28.3269 7.15208 28.2703 7.07448 28.2314 6.98778C28.1925 6.90107 28.1722 6.80718 28.1719 6.71215ZM29.6191 6.51977V6.33154L29.0693 6.36669C28.7593 6.38744 28.6186 6.49291 28.6186 6.6914C28.6186 6.89403 28.7944 7.01195 29.0361 7.01195C29.107 7.01912 29.1785 7.01197 29.2465 6.99092C29.3145 6.96988 29.3776 6.93537 29.432 6.88945C29.4864 6.84353 29.531 6.78714 29.5631 6.72363C29.5953 6.66012 29.6143 6.59079 29.6191 6.51977ZM28.9121 4.72094L29.4311 4.00977H29.9521L29.3711 4.72094H28.9121Z" fill="white"/>
<path d="M30.7539 5.09733H31.1816V5.44254H31.2148C31.2627 5.32271 31.3474 5.22113 31.4566 5.15239C31.5658 5.08366 31.694 5.0513 31.8228 5.05997C31.8893 5.05908 31.9558 5.0653 32.021 5.07853V5.51703C31.9394 5.4996 31.8563 5.49061 31.7729 5.49017C31.6997 5.48359 31.6258 5.49241 31.5561 5.51607C31.4865 5.53973 31.4225 5.57771 31.3684 5.62755C31.3143 5.6774 31.2712 5.73802 31.2419 5.80552C31.2126 5.87301 31.1977 5.94589 31.1982 6.01947V7.34881H30.7539L30.7539 5.09733Z" fill="white"/>
<path d="M32.4287 7.57322H32.8835C32.9211 7.73655 33.1091 7.84202 33.4089 7.84202C33.779 7.84202 33.9983 7.66624 33.9983 7.36863V6.9365H33.9651C33.8954 7.05746 33.7936 7.15681 33.671 7.22354C33.5484 7.29028 33.4097 7.32182 33.2703 7.31467C32.6956 7.31467 32.3398 6.87034 32.3398 6.19627C32.3398 5.50977 32.6995 5.05907 33.2747 5.05907C33.4176 5.05409 33.5591 5.08848 33.6838 5.15849C33.8085 5.2285 33.9115 5.33143 33.9817 5.45604H34.0168V5.09642H34.4426V7.36641C34.4426 7.88131 34.0393 8.20797 33.4026 8.20797C32.8401 8.208 32.4761 7.95578 32.4287 7.57322ZM34.0066 6.19407C34.0066 5.74557 33.7746 5.45824 33.3962 5.45824C33.0139 5.45824 32.7991 5.74559 32.7991 6.19407C32.7991 6.6428 33.0139 6.93016 33.3962 6.93016C33.7771 6.93015 34.0066 6.645 34.0066 6.19407H34.0066Z" fill="white"/>
<path d="M35.0273 6.71093C35.0273 6.30566 35.3291 6.07202 35.8647 6.03881L36.4746 6.00366V5.80932C36.4746 5.57153 36.3174 5.43725 36.0137 5.43725C35.7656 5.43725 35.5938 5.52832 35.5444 5.6875H35.1143C35.1597 5.30078 35.5234 5.05273 36.0342 5.05273C36.5986 5.05273 36.917 5.33373 36.917 5.80932V7.34765H36.4893V7.03124H36.4541C36.3827 7.14474 36.2825 7.23726 36.1637 7.29937C36.0449 7.36147 35.9118 7.39093 35.7778 7.38474C35.6833 7.39457 35.5878 7.38449 35.4974 7.35514C35.407 7.32579 35.3238 7.27783 35.2531 7.21434C35.1824 7.15086 35.1258 7.07326 35.0869 6.98656C35.048 6.89985 35.0277 6.80595 35.0273 6.71093ZM36.4746 6.51854V6.33032L35.9248 6.36547C35.6147 6.38622 35.4741 6.49169 35.4741 6.69017C35.4741 6.89281 35.6499 7.01073 35.8916 7.01073C35.9624 7.0179 36.034 7.01075 36.102 6.9897C36.17 6.96866 36.2331 6.93415 36.2875 6.88823C36.3418 6.84231 36.3864 6.78591 36.4186 6.7224C36.4507 6.65889 36.4698 6.58957 36.4746 6.51854Z" fill="white"/>
<path d="M37.6289 4.21875H38.0732V7.34911H37.6289V4.21875Z" fill="white"/>
<path d="M38.6886 6.22092C38.6745 6.07296 38.6914 5.92368 38.7383 5.78264C38.7852 5.64161 38.8611 5.51194 38.9611 5.40195C39.061 5.29196 39.1829 5.20407 39.3188 5.14394C39.4548 5.0838 39.6017 5.05273 39.7504 5.05273C39.899 5.05273 40.046 5.0838 40.1819 5.14394C40.3179 5.20407 40.4397 5.29196 40.5397 5.40195C40.6397 5.51194 40.7155 5.64161 40.7625 5.78264C40.8094 5.92368 40.8263 6.07296 40.8121 6.22092C40.8266 6.36903 40.8098 6.51852 40.763 6.65978C40.7163 6.80104 40.6404 6.93095 40.5404 7.04116C40.4404 7.15137 40.3185 7.23943 40.1824 7.2997C40.0464 7.35997 39.8992 7.3911 39.7504 7.3911C39.6016 7.3911 39.4544 7.35997 39.3183 7.2997C39.1823 7.23943 39.0603 7.15137 38.9603 7.04116C38.8603 6.93095 38.7845 6.80104 38.7377 6.65978C38.6909 6.51852 38.6742 6.36903 38.6886 6.22092ZM40.3551 6.22092C40.3551 5.73289 40.1359 5.44749 39.7511 5.44749C39.3649 5.44749 39.1476 5.73289 39.1476 6.22092C39.1476 6.71287 39.3649 6.99607 39.7511 6.99607C40.1359 6.99606 40.3551 6.71091 40.3551 6.22092H40.3551Z" fill="white"/>
<path d="M44.5369 6.73978C44.4766 6.94555 44.3458 7.12354 44.1674 7.24262C43.9891 7.36169 43.7745 7.41427 43.5614 7.39114C43.413 7.39506 43.2656 7.36665 43.1294 7.30789C42.9931 7.24912 42.8713 7.16141 42.7723 7.05084C42.6734 6.94027 42.5997 6.80949 42.5563 6.66758C42.513 6.52567 42.501 6.37603 42.5213 6.22904C42.5016 6.0816 42.5137 5.93163 42.557 5.78929C42.6002 5.64696 42.6735 5.51558 42.772 5.40404C42.8704 5.2925 42.9916 5.20342 43.1275 5.14281C43.2634 5.08221 43.4106 5.0515 43.5594 5.05277C44.1859 5.05277 44.5638 5.48077 44.5638 6.18777V6.34282H42.974V6.36772C42.967 6.45034 42.9774 6.53351 43.0044 6.61188C43.0315 6.69025 43.0746 6.76211 43.1311 6.82284C43.1876 6.88356 43.2561 6.93183 43.3323 6.96452C43.4085 6.99722 43.4906 7.01364 43.5736 7.01272C43.6798 7.02548 43.7875 7.00634 43.8829 6.95773C43.9783 6.90913 44.0571 6.83326 44.1092 6.73977L44.5369 6.73978ZM42.9739 6.0142H44.1111C44.1167 5.93864 44.1065 5.86274 44.081 5.79138C44.0555 5.72002 44.0154 5.65478 43.9632 5.59985C43.911 5.54492 43.8479 5.50152 43.7779 5.47243C43.708 5.44334 43.6327 5.42921 43.5569 5.43095C43.4801 5.42999 43.4038 5.44442 43.3326 5.47339C43.2615 5.50236 43.1968 5.54529 43.1425 5.59965C43.0881 5.65401 43.0452 5.71869 43.0163 5.78988C42.9873 5.86108 42.973 5.93735 42.974 6.0142H42.9739Z" fill="white"/>
<path d="M45.1641 5.09841H45.5918V5.45607H45.625C45.6813 5.32761 45.7763 5.21993 45.8968 5.14803C46.0172 5.07612 46.1571 5.04359 46.2969 5.05495C46.4064 5.04671 46.5164 5.06323 46.6187 5.10328C46.721 5.14333 46.813 5.20588 46.8878 5.2863C46.9627 5.36672 47.0185 5.46295 47.0511 5.56786C47.0837 5.67277 47.0922 5.78367 47.0762 5.89235V7.34984H46.6318V6.00393C46.6318 5.64211 46.4746 5.46218 46.146 5.46218C46.0716 5.45872 45.9974 5.47137 45.9283 5.49929C45.8593 5.5272 45.7971 5.56972 45.7461 5.62391C45.695 5.6781 45.6563 5.74269 45.6325 5.81326C45.6087 5.88382 45.6005 5.95869 45.6084 6.03273V7.34987H45.1641V5.09841Z" fill="white"/>
<path d="M50.8846 6.73978C50.8242 6.94555 50.6934 7.12354 50.5151 7.24262C50.3367 7.36169 50.1222 7.41427 49.909 7.39114C49.7607 7.39506 49.6133 7.36665 49.477 7.30789C49.3408 7.24912 49.2189 7.16141 49.12 7.05084C49.021 6.94027 48.9473 6.80949 48.904 6.66758C48.8606 6.52567 48.8487 6.37603 48.869 6.22904C48.8492 6.0816 48.8614 5.93163 48.9046 5.78929C48.9479 5.64696 49.0212 5.51558 49.1196 5.40404C49.2181 5.2925 49.3393 5.20342 49.4752 5.14281C49.611 5.08221 49.7583 5.0515 49.9071 5.05277C50.5335 5.05277 50.9115 5.48077 50.9115 6.18777V6.34282H49.3216V6.36772C49.3147 6.45034 49.325 6.53351 49.3521 6.61188C49.3792 6.69025 49.4223 6.76211 49.4788 6.82284C49.5352 6.88356 49.6037 6.93183 49.6799 6.96452C49.7561 6.99722 49.8383 7.01364 49.9212 7.01272C50.0275 7.02548 50.1352 7.00634 50.2306 6.95773C50.3259 6.90913 50.4047 6.83326 50.4569 6.73977L50.8846 6.73978ZM49.3216 6.0142H50.4588C50.4644 5.93864 50.4541 5.86274 50.4287 5.79138C50.4032 5.72002 50.3631 5.65478 50.3109 5.59985C50.2587 5.54492 50.1956 5.50152 50.1256 5.47243C50.0556 5.44334 49.9804 5.42921 49.9046 5.43095C49.8278 5.42999 49.7515 5.44441 49.6803 5.47339C49.6091 5.50236 49.5445 5.54529 49.4901 5.59964C49.4358 5.654 49.3929 5.71868 49.3639 5.78988C49.335 5.86108 49.3206 5.93735 49.3216 6.0142H49.3216Z" fill="white"/>
<path d="M51.5312 4.21875H51.9756V7.34911H51.5312V4.21875Z" fill="white"/>
</svg>
