<svg width="74" height="21" viewBox="0 0 74 21" fill="none" xmlns="http://www.w3.org/2000/svg">
<g clip-path="url(#clip0)">
<path d="M4.37358 17.6509C4.62107 17.6509 4.81356 17.4649 4.81356 17.2256C4.81356 16.9864 4.62107 16.8003 4.37358 16.8003C4.12609 16.8003 3.93359 16.9864 3.93359 17.2256C3.93359 17.4649 4.12609 17.6509 4.37358 17.6509Z" fill="#009CDE"/>
<path d="M37.8384 20.9471C38.0859 20.9471 38.2784 20.761 38.2784 20.5218C38.2784 20.2825 38.0859 20.0964 37.8384 20.0964C37.5909 20.0964 37.3984 20.2825 37.3984 20.5218C37.3984 20.761 37.5909 20.9471 37.8384 20.9471Z" fill="#6B1A6B"/>
<path d="M17.3511 18.3948C17.3511 17.9163 17.1861 17.5176 16.8837 17.2518L16.8562 17.2252C16.5812 16.9859 16.1687 16.853 15.7287 16.853C15.7012 16.853 15.7012 16.853 15.7012 16.853H15.6737C15.2062 16.853 14.8212 16.9859 14.5462 17.2252L14.4362 17.2783C14.1337 17.5442 13.9688 17.9429 13.9688 18.3948V20.8138C13.9688 20.8404 13.9962 20.867 13.9962 20.8935C14.0237 20.9201 14.0512 20.9201 14.0787 20.9201H14.5187C14.5462 20.9201 14.6012 20.9201 14.6012 20.8935C14.6287 20.867 14.6287 20.8404 14.6287 20.8138V18.4745C14.6287 18.129 14.7112 17.8897 14.8762 17.7302C15.0412 17.5707 15.2887 17.491 15.6187 17.491C15.9487 17.491 16.1962 17.5973 16.3337 17.7302C16.4987 17.8897 16.5812 18.129 16.5812 18.4745V20.8138C16.5812 20.8404 16.6087 20.867 16.6087 20.8935C16.6362 20.9201 16.6637 20.9201 16.6912 20.9201H17.1311C17.1586 20.9201 17.2136 20.9201 17.2136 20.8935C17.2411 20.867 17.2411 20.8404 17.2411 20.8138L17.3511 18.3948Z" fill="#D7006D"/>
<path d="M32.8624 18.3948C32.8624 17.9163 32.6974 17.5176 32.3949 17.2518L32.3674 17.2252C32.0924 16.9859 31.6799 16.853 31.2399 16.853C31.2124 16.853 31.2124 16.853 31.2124 16.853H31.1849C30.7175 16.853 30.3325 16.9859 30.0575 17.2252L30.03 17.2518C29.7275 17.5176 29.5625 17.9163 29.5625 18.3682V20.7872C29.5625 20.8138 29.59 20.8404 29.59 20.867C29.6175 20.8935 29.645 20.8935 29.6725 20.8935H30.1125C30.14 20.8935 30.195 20.8935 30.195 20.867C30.2225 20.8404 30.2225 20.8138 30.2225 20.7872V18.448C30.2225 18.1024 30.305 17.8632 30.47 17.7037C30.635 17.5442 30.8825 17.4644 31.2124 17.4644C31.5424 17.4644 31.7899 17.5707 31.9274 17.7037C32.0924 17.8632 32.1749 18.1024 32.1749 18.448V20.7872C32.1749 20.8138 32.2024 20.8404 32.2024 20.867C32.2299 20.8935 32.2574 20.8935 32.2849 20.8935H32.7249C32.7524 20.8935 32.8074 20.8935 32.8074 20.867C32.8349 20.8404 32.8349 20.8138 32.8349 20.7872L32.8624 18.3948Z" fill="#D7006D"/>
<path d="M24.559 18.9266C24.559 19.3254 24.504 19.6975 24.3665 19.9633C24.229 20.2292 23.9815 20.3887 23.514 20.3887C23.514 20.3887 23.514 20.3887 23.4865 20.3887C23.019 20.3887 22.7715 20.2026 22.634 19.9368C22.469 19.6709 22.4415 19.2988 22.4415 18.9001V18.8735C22.4415 18.5013 22.4965 18.1823 22.634 17.9165C22.7715 17.6507 23.019 17.4912 23.4865 17.4646C23.954 17.4646 24.2015 17.6507 24.339 17.9165C24.504 18.2089 24.559 18.5279 24.559 18.9266ZM24.6965 17.2785C24.6965 17.2785 24.669 17.2785 24.6965 17.2785C24.449 17.0393 24.0365 16.9064 23.569 16.9064H23.5415C23.1565 16.9064 22.7715 16.9861 22.4415 17.2519V17.0127V15.7899C22.4415 15.7633 22.414 15.7368 22.414 15.7102C22.3865 15.6836 22.359 15.6836 22.3315 15.6836H21.8916C21.8641 15.6836 21.8091 15.6836 21.8091 15.7102C21.7266 15.7368 21.7266 15.7899 21.7266 15.8165V17.0393V19.6178V20.8406C21.7266 20.8671 21.7541 20.8937 21.7541 20.9203C21.7816 20.9469 21.8091 20.9469 21.8366 20.9469H22.2765C22.304 20.9469 22.359 20.9469 22.359 20.9203C22.3865 20.8937 22.3865 20.8671 22.3865 20.8406V20.6013C22.689 20.9203 23.1015 21.0266 23.4865 21.0266H23.514C23.9815 21.0266 24.394 20.8937 24.6415 20.6545C25.1089 20.2292 25.2189 19.5646 25.2189 18.9532C25.2464 18.3152 25.1639 17.7304 24.6965 17.2785Z" fill="#D7006D"/>
<path d="M12.7338 19.4584C12.7338 19.7773 12.6513 19.9634 12.5688 20.0432C12.3213 20.2558 12.0463 20.2824 11.6889 20.2824C11.3314 20.2824 11.1114 20.2292 11.0014 20.1229C10.8914 20.0432 10.8089 19.9103 10.8089 19.6976C10.8089 19.4849 10.8639 19.352 11.0014 19.2723C11.1389 19.166 11.3589 19.1128 11.6614 19.1128H12.7613V19.4584H12.7338ZM13.4763 18.2356C13.4763 17.8103 13.3388 17.4647 13.0363 17.2255C12.7338 16.9862 12.3213 16.8799 11.7713 16.8799H11.7439C11.1664 16.8799 10.6989 17.0128 10.3689 17.3584L10.3414 17.3849C10.3139 17.4115 10.2864 17.4381 10.2589 17.4647L10.2314 17.5179C10.2039 17.5444 10.1764 17.571 10.1764 17.5976C10.1764 17.6242 10.2039 17.6508 10.2314 17.6774L10.2589 17.7039L10.2864 17.7305L10.3689 17.7837L10.5889 17.9698C10.6164 17.9963 10.6439 17.9963 10.6714 17.9963C10.6989 17.9963 10.7264 17.9698 10.7539 17.9432L10.8914 17.7837C10.9739 17.7039 11.0564 17.6242 11.1664 17.5976C11.3039 17.5444 11.4964 17.5179 11.7713 17.4913C12.1563 17.4913 12.4038 17.571 12.5413 17.6774C12.6788 17.7837 12.7338 17.9698 12.7613 18.2356V18.5014H11.6339C11.1664 18.5014 10.7814 18.6077 10.5064 18.8204C10.2314 19.033 10.0664 19.352 10.0664 19.6976V19.7242C10.0664 20.0432 10.1764 20.3356 10.3964 20.5482C10.6989 20.8141 11.0839 20.9204 11.6614 20.9204H11.9638C12.5138 20.9204 12.8988 20.7875 13.1463 20.5217C13.3938 20.2558 13.5038 19.8837 13.5038 19.4318L13.4763 18.2356Z" fill="#D7006D"/>
<path d="M26.2892 19.7508C26.2892 19.5381 26.3442 19.4052 26.4817 19.3255C26.6192 19.2191 26.8392 19.166 27.1417 19.166H28.2416V19.4849C28.2416 19.8039 28.1591 19.99 28.0766 20.0698C27.8291 20.2824 27.5542 20.309 27.1967 20.309C26.8392 20.309 26.6192 20.2558 26.5092 20.1495C26.3442 20.0698 26.2892 19.9368 26.2892 19.7508ZM28.9841 18.2356C28.9841 17.8103 28.8466 17.4647 28.5441 17.2255C28.2416 16.9862 27.8291 16.8799 27.2792 16.8799H27.2517C26.6742 16.8799 26.2067 17.0128 25.8767 17.3584L25.8492 17.3849C25.8217 17.4115 25.7942 17.4381 25.7667 17.4647L25.7392 17.5179C25.7117 17.5444 25.7117 17.571 25.7117 17.5976C25.7117 17.6242 25.7392 17.6508 25.7667 17.6774L25.7942 17.7039L25.8217 17.7305L25.9042 17.7837L26.1242 17.9698C26.1517 17.9963 26.1792 17.9963 26.2067 17.9963C26.2342 17.9963 26.2617 17.9698 26.2892 17.9432L26.3992 17.8103C26.4817 17.7305 26.5642 17.6508 26.6742 17.6242C26.8117 17.571 27.0042 17.5444 27.2792 17.5444C27.6641 17.5444 27.9116 17.6242 28.0491 17.7305C28.1866 17.8368 28.2416 18.0229 28.2691 18.2887V18.5546H27.1417C26.6742 18.5546 26.2892 18.6609 26.0142 18.8736C25.7392 19.0862 25.5742 19.4052 25.5742 19.7508V19.7774C25.5742 20.0963 25.6842 20.3887 25.9042 20.6014C26.2067 20.8672 26.5917 20.9736 27.1692 20.9736H27.4717C28.0216 20.9736 28.4066 20.8406 28.6541 20.5748C28.9016 20.309 29.0116 19.9368 29.0116 19.4849L28.9841 18.2356Z" fill="#D7006D"/>
<path d="M6.62917 16.9067H5.8867V16.1623V15.8168C5.8867 15.7636 5.8317 15.7104 5.7492 15.7104H5.30921C5.28172 15.7104 5.25422 15.7104 5.22672 15.737C5.19922 15.7636 5.19922 15.7902 5.19922 15.8168V16.4813V19.937C5.19922 20.2294 5.28172 20.4687 5.47421 20.6548C5.6392 20.8408 5.94169 20.9472 6.27168 20.9472H6.49167H6.68417C6.71167 20.9472 6.73917 20.9206 6.76667 20.9206C6.79416 20.894 6.79416 20.8674 6.79416 20.8408V20.4155C6.79416 20.3889 6.79416 20.3358 6.76667 20.3358C6.73917 20.3092 6.71167 20.3092 6.68417 20.3092H6.32668C6.24418 20.3092 6.18918 20.3092 6.16169 20.2826C6.05169 20.2029 6.05169 20.2029 6.02419 20.1763C5.99669 20.1497 5.99669 20.1497 5.96919 20.1231C5.91419 20.0434 5.8592 19.937 5.8592 19.7775V17.5446H6.60167C6.62917 17.5446 6.65667 17.518 6.68417 17.518C6.71167 17.4915 6.71167 17.4649 6.71167 17.4383V17.013C6.71167 16.9864 6.71167 16.9332 6.68417 16.9332C6.68417 16.9067 6.65667 16.9067 6.62917 16.9067Z" fill="#D7006D"/>
<path d="M9.84632 17.3849L9.79132 17.3318C9.79132 17.3318 9.79132 17.3318 9.79132 17.3052L9.76382 17.2786H9.73632L9.70882 17.252C9.46133 16.9862 9.13134 16.8799 8.80136 16.8799H8.77386C8.52636 16.8799 8.25137 16.9862 8.08638 17.1723L7.97638 17.3052V17.252V17.0128C7.97638 16.9862 7.94888 16.9596 7.94888 16.933C7.92139 16.9065 7.89389 16.9065 7.86639 16.9065H7.4264C7.3989 16.9065 7.34391 16.9065 7.34391 16.933C7.31641 16.9596 7.31641 16.9862 7.31641 17.0128V17.252V20.8141C7.31641 20.8406 7.34391 20.8672 7.34391 20.8938C7.3714 20.9204 7.3989 20.9204 7.4264 20.9204H7.5089H7.78389H7.86639C7.89389 20.9204 7.94888 20.9204 7.94888 20.8938C7.97638 20.8672 7.97638 20.8406 7.97638 20.8141V20.7609V18.5014V18.3153C7.97638 18.1027 8.05888 17.9166 8.16888 17.7837C8.27887 17.6242 8.47137 17.5444 8.71886 17.5444C8.85635 17.5444 8.93885 17.571 8.99385 17.5976C9.07635 17.6242 9.13134 17.6774 9.21384 17.7571L9.24134 17.7837L9.32384 17.89C9.35134 17.9166 9.37884 17.9166 9.40633 17.9166C9.43383 17.9166 9.48883 17.9166 9.48883 17.89L9.81882 17.5976C9.84632 17.571 9.87382 17.5444 9.87382 17.5179C9.90132 17.4647 9.87382 17.4115 9.84632 17.3849Z" fill="#D7006D"/>
<path d="M20.9007 18.8464C20.6257 18.6603 20.3232 18.6072 19.9657 18.5806L19.3057 18.5274C19.0307 18.5009 18.8657 18.4477 18.7557 18.3679C18.6732 18.3148 18.6182 18.2084 18.6182 18.049C18.6182 17.8629 18.7007 17.73 18.8107 17.6502C18.9482 17.5439 19.1682 17.4907 19.4707 17.4907C19.8557 17.4907 20.1857 17.5705 20.4607 17.7566L20.6257 17.8629C20.6532 17.8895 20.6807 17.8895 20.7082 17.8895C20.7357 17.8895 20.7632 17.8629 20.7907 17.8363L21.0382 17.4907C21.0657 17.4641 21.0657 17.4376 21.0657 17.3844C21.0657 17.3578 21.0657 17.3578 21.0382 17.3312C21.0382 17.3047 21.0107 17.3047 21.0107 17.2781L20.9832 17.2515C20.5982 16.9857 20.0482 16.8262 19.4707 16.8262C19.0032 16.8262 18.5908 16.9325 18.3158 17.1452C18.0408 17.3578 17.8483 17.6502 17.8483 18.0224C17.8483 18.3414 17.9583 18.6072 18.2058 18.7933C18.4533 18.9793 18.7832 19.0857 19.2232 19.1122L19.8832 19.1654C20.1307 19.192 20.2957 19.2452 20.3782 19.3249C20.4607 19.3781 20.5157 19.4844 20.5157 19.6439C20.5157 19.83 20.4332 19.9895 20.2682 20.0692C20.1032 20.1755 19.8282 20.2287 19.4707 20.2287C18.9757 20.2287 18.6182 20.1224 18.3433 19.9097L18.2058 19.8034C18.1783 19.7768 18.1508 19.7768 18.1233 19.7768C18.0958 19.7768 18.0683 19.8034 18.0408 19.83L17.7658 20.149C17.7383 20.1755 17.7383 20.2021 17.7383 20.2553C17.7383 20.2819 17.7658 20.3084 17.7933 20.335L17.9308 20.4414L17.9583 20.4679C18.3708 20.7603 18.8932 20.8933 19.5257 20.8933C20.0482 20.8933 20.4882 20.7869 20.8182 20.5743C21.1482 20.3616 21.3132 20.0426 21.3132 19.6705V19.6439C21.2857 19.3249 21.1482 19.0325 20.9007 18.8464Z" fill="#D7006D"/>
<path d="M37.0127 20.7611L36.4627 20.0168L35.3627 18.475L36.2152 17.5978L36.7102 17.0927L36.7377 17.0661C36.7927 17.013 36.7652 16.9598 36.7377 16.9332C36.7102 16.9067 36.6827 16.9067 36.6552 16.9067H36.0777C36.0502 16.9067 35.9952 16.9332 35.9677 16.9598L34.0428 18.9269V17.2788V15.8168C34.0428 15.7902 34.0153 15.7636 34.0153 15.737C33.9878 15.7104 33.9603 15.7104 33.9328 15.7104H33.4928C33.4653 15.7104 33.4103 15.7104 33.4103 15.737C33.3828 15.7636 33.3828 15.7902 33.3828 15.8168V17.2788V20.8408C33.3828 20.8674 33.4103 20.894 33.4103 20.9206C33.4378 20.9472 33.4653 20.9472 33.4928 20.9472H33.9328C33.9603 20.9472 34.0153 20.9472 34.0153 20.9206C34.0428 20.894 34.0428 20.8674 34.0428 20.8408V19.8307L34.8678 18.9535L35.4177 19.751L36.2152 20.894C36.2427 20.9206 36.2702 20.9472 36.3252 20.9472H36.9027C36.9302 20.9472 36.9852 20.9472 36.9852 20.9206C37.0402 20.894 37.0677 20.8142 37.0127 20.7611Z" fill="#D7006D"/>
<path d="M32.1211 15.7104H32.2036L32.3136 16.0294L32.4236 15.7104H32.5061V16.1092H32.4511V15.8699V15.8434C32.4511 15.8168 32.4511 15.8168 32.4511 15.7902L32.3411 16.1092H32.2861L32.1761 15.7902V15.8434C32.1761 15.8699 32.1761 15.8699 32.1761 15.8965V16.1358H32.1211V15.7104Z" fill="#D7006D"/>
<path d="M32.9191 15.8965C32.9466 15.8965 32.9741 15.8965 32.9741 15.8699C32.9741 15.8699 33.0016 15.8434 33.0016 15.8168C33.0016 15.7902 33.0016 15.7636 32.9741 15.7636C32.9741 15.7636 32.9466 15.7636 32.9191 15.7636H32.7816V15.8965H32.9191ZM32.7266 15.7104H32.9191C32.9466 15.7104 32.9741 15.7104 33.0016 15.7104C33.0291 15.737 33.0566 15.7636 33.0566 15.7902C33.0566 15.8168 33.0566 15.8434 33.0291 15.8434C33.0291 15.8699 33.0016 15.8699 32.9741 15.8699C33.0016 15.8699 33.0016 15.8965 33.0016 15.8965C33.0016 15.8965 33.0016 15.9231 33.0016 15.9497V16.0029C33.0016 16.0294 33.0016 16.0294 33.0016 16.0294C33.0016 16.0294 33.0016 16.056 33.0291 16.056H33.0016V16.0294V15.9763C33.0016 15.9497 33.0016 15.9231 32.9741 15.9231C32.9741 15.9231 32.9466 15.9231 32.9191 15.9231H32.8091V16.0826H32.7266V15.7104Z" fill="#D7006D"/>
<path d="M32.6174 16.109C32.5898 16.109 32.5898 16.109 32.5898 16.0824C32.5898 16.0557 32.5898 16.0557 32.6174 16.0557C32.6451 16.0557 32.6451 16.0557 32.6451 16.0824C32.6451 16.0824 32.6451 16.109 32.6174 16.109Z" fill="#D7006D"/>
<path d="M33.1643 16.109C33.1367 16.109 33.1367 16.109 33.1367 16.0824C33.1367 16.0557 33.1367 16.0557 33.1643 16.0557C33.1919 16.0557 33.1919 16.0557 33.1919 16.0824C33.1919 16.0824 33.1919 16.109 33.1643 16.109Z" fill="#D7006D"/>
<path d="M9.07592 0.0793457C7.64597 0.0793457 6.40851 0.557827 5.47354 1.46162C4.12609 2.79074 3.93359 4.62492 3.93359 6.24643C3.93359 7.86795 4.12609 9.70213 5.47354 11.0312C6.40851 11.935 7.64597 12.4135 9.07592 12.4135C10.5059 12.4135 11.7433 11.935 12.6783 11.0312C14.0258 9.70213 14.2182 7.86795 14.2182 6.24643C14.2182 4.62492 14.0258 2.79074 12.6783 1.46162C11.7433 0.557827 10.4784 0.0793457 9.07592 0.0793457ZM6.98599 2.73757C7.53597 2.20593 8.25095 1.91352 9.07592 1.91352C9.90089 1.91352 10.6434 2.20593 11.1934 2.73757C12.0458 3.56162 12.1008 4.99707 12.1008 6.27302C12.1008 7.54897 12.0183 8.98441 11.1934 9.80846C10.6434 10.3401 9.90089 10.6325 9.07592 10.6325C8.25095 10.6325 7.53597 10.3401 6.98599 9.80846C6.16102 9.01099 6.05102 7.62871 6.05102 6.27302C6.02352 4.89074 6.16102 3.53504 6.98599 2.73757Z" fill="#009CDE"/>
<path d="M25.9059 4.6519C25.9059 3.21646 25.3834 2.02025 24.4485 1.1962L24.3935 1.14304H24.366C23.486 0.398734 22.3035 0.0265823 20.9011 0H20.8736H20.8461C20.7911 0 20.7636 0 20.7636 0C20.7361 0 20.7086 0 20.6811 0H20.6536H20.6261H20.5986C19.1961 0.0265823 18.0137 0.398734 17.1337 1.11646L17.0512 1.1962C16.1162 1.99367 15.6212 3.21646 15.5938 4.62532V11.962C15.5938 12.0684 15.6487 12.1481 15.7037 12.2278C15.7862 12.3076 15.8962 12.3342 15.9787 12.3342H17.3262C17.4362 12.3342 17.5462 12.281 17.6012 12.2278C17.6837 12.1481 17.7112 12.0684 17.7112 11.962V4.86456C17.7112 3.82785 17.9862 3.08354 18.4812 2.60506C19.0036 2.12658 19.7461 1.86076 20.7361 1.86076C21.7535 1.86076 22.4685 2.12658 22.9635 2.60506C23.4585 3.08354 23.7335 3.82785 23.7335 4.86456V11.962C23.7335 12.0684 23.7885 12.1481 23.8435 12.2278C23.926 12.3076 24.036 12.3342 24.1185 12.3342H25.4659C25.5759 12.3342 25.6859 12.281 25.7409 12.2278C25.8234 12.1481 25.8509 12.0684 25.8509 11.962L25.9059 4.6519Z" fill="#009CDE"/>
<path d="M67.8419 13.5042C67.7319 13.8232 67.512 14.3017 67.3745 14.6207C67.3745 14.6207 67.127 15.1523 66.7695 15.5245C66.4395 15.8435 66.0545 16.0561 65.642 16.1891C65.2295 16.322 64.927 16.322 64.927 16.322C64.5971 16.3485 64.1021 16.3751 63.8271 16.3751C63.5521 16.3751 63.3321 16.1093 63.3321 15.7637V14.8865C63.3321 14.5675 63.4696 14.2751 63.6346 14.2751C63.7996 14.2751 64.2121 14.2485 64.5696 14.222C64.5696 14.222 64.817 14.1954 65.0645 14.0093C65.312 13.8232 65.422 13.584 65.422 13.584C65.5595 13.2916 65.7795 12.7865 65.8895 12.4675L66.137 11.803C66.247 11.484 66.247 10.9789 66.137 10.6865L62.3696 0.744751C62.2596 0.425764 62.4246 0.186523 62.7821 0.186523H64.1021C64.4321 0.186523 64.817 0.452346 64.927 0.744751L67.3745 7.76247C67.4845 8.08146 67.6494 8.08146 67.7594 7.76247L70.1519 0.744751C70.2619 0.425764 70.6194 0.186523 70.9768 0.186523H72.3243C72.6543 0.186523 72.8468 0.452346 72.7368 0.744751L67.8419 13.5042Z" fill="#009CDE"/>
<path d="M53.4848 8.69228V8.66569C53.4848 8.02772 53.6773 7.65557 54.0623 7.36316C54.4472 7.07076 55.1072 6.88468 56.0972 6.88468H59.3971V7.86823C59.3971 8.85177 59.1771 9.38342 58.8746 9.62266C58.1596 10.2606 57.2796 10.367 56.1797 10.367H56.1522C55.1072 10.367 54.4197 10.1809 54.0348 9.91506C53.6773 9.7024 53.5123 9.33025 53.4848 8.69228ZM61.6245 4.14671C61.6245 2.89734 61.212 1.83405 60.3045 1.14291C59.3971 0.425189 58.1046 0.106201 56.4547 0.106201H56.3997H56.3722C54.6397 0.106201 53.2373 0.478353 52.1923 1.54164L52.1373 1.59481C52.0548 1.67456 51.9723 1.7543 51.9173 1.86063L51.8073 1.99354C51.7523 2.07329 51.6973 2.17962 51.7248 2.25937C51.7248 2.36569 51.7798 2.44544 51.8623 2.52519L51.9173 2.57835C51.9448 2.60494 51.9723 2.63152 51.9998 2.6581L52.2473 2.84418L52.8798 3.37582C52.9623 3.45557 53.0723 3.48215 53.1548 3.48215C53.2648 3.48215 53.3473 3.42899 53.4298 3.34924L53.8423 2.89734C54.0898 2.63152 54.3647 2.44544 54.6672 2.31253C55.1072 2.12645 55.6847 2.04671 56.4822 2.02013H56.5097C57.6646 2.02013 58.3796 2.25937 58.8196 2.60494C59.2321 2.95051 59.4521 3.48215 59.4521 4.27962V4.3062V5.07709H56.0147C54.6122 5.07709 53.4573 5.39607 52.6323 6.00747C51.8073 6.61886 51.3398 7.57582 51.3398 8.69228V8.74544C51.3398 9.67582 51.6973 10.5796 52.3573 11.2176C53.2373 12.0682 54.4197 12.3606 56.1797 12.3606H56.2072H57.1147C58.7371 12.3606 59.9196 11.9619 60.662 11.191C61.4045 10.4201 61.707 9.27709 61.707 7.86823L61.6245 4.14671Z" fill="#009CDE"/>
<path d="M1.29246 2.71257C2.00743 2.71257 2.58491 2.15434 2.58491 1.46321C2.58491 0.772066 2.00743 0.187256 1.29246 0.187256C0.57748 0.187256 0 0.745484 0 1.43662C0 2.12776 0.57748 2.71257 1.29246 2.71257Z" fill="#D7006D"/>
<path d="M72.7065 12.3877C73.4215 12.3877 73.999 11.8294 73.999 11.1383C73.999 10.4471 73.4215 9.88892 72.7065 9.88892C71.9915 9.88892 71.4141 10.4471 71.4141 11.1383C71.4141 11.8294 71.9915 12.3877 72.7065 12.3877Z" fill="#D7006D"/>
<path d="M37.8397 5.87496C37.8397 2.25977 35.8597 0.0268555 32.6698 0.0268555C29.4249 0.0268555 27.5 2.33951 27.5 6.22053C27.5 10.2079 29.4524 12.4142 32.9998 12.4142C35.1997 12.4142 36.3822 11.6965 37.5647 10.5534L37.7297 10.3939L36.2172 9.09141L36.0797 9.22433C35.1172 10.1547 34.3198 10.5003 33.0548 10.5003C30.9649 10.5003 29.7824 9.22432 29.6999 6.8585H37.8397V5.87496ZM29.6999 5.18382C29.7549 4.43951 29.8099 4.09394 30.0299 3.50913C30.4699 2.49901 31.4874 1.88762 32.6698 1.88762C33.8523 1.88762 34.8698 2.52559 35.3097 3.50913C35.5572 4.06736 35.6122 4.41293 35.6397 5.18382H29.6999Z" fill="#009CDE"/>
<path d="M48.0131 6.35316C48.0131 7.52279 47.8756 8.45317 47.4357 9.27722C46.9682 10.0747 46.2532 10.6063 44.8233 10.6063H44.7958H44.7683C43.3383 10.6063 42.5958 10.0747 42.1558 9.27722C41.6884 8.45317 41.5509 7.52279 41.5509 6.35316V6.27342C41.5509 5.1038 41.6884 3.93418 42.1558 3.11013C42.6233 2.31266 43.3383 1.78101 44.7683 1.78101H44.7958C44.8233 1.78101 44.8508 1.78101 44.8508 1.78101C46.2532 1.8076 46.9957 2.33924 47.4357 3.11013C47.9031 3.93418 48.0131 5.07722 48.0406 6.24684V6.27342V6.3V6.35316H48.0131ZM48.4256 11.2709C49.8281 9.96836 50.1581 8.18734 50.1581 6.32658C50.1581 4.46582 49.8281 2.44557 48.3981 1.11646C47.6282 0.425316 46.3907 0 44.9882 0H44.9058C43.7233 0 42.4583 0.318987 41.5784 1.30253V0.558228C41.5784 0.451899 41.5234 0.372152 41.4684 0.292405C41.3859 0.212658 41.2759 0.186076 41.1934 0.186076H39.8734C39.7634 0.186076 39.6534 0.212658 39.5709 0.292405C39.4884 0.372152 39.4609 0.451899 39.4609 0.558228V4.22658V12.0949V15.7899C39.4609 15.8962 39.5159 15.976 39.5709 16.0557C39.6534 16.1354 39.7634 16.162 39.8459 16.162H41.1659C41.2759 16.162 41.3859 16.1089 41.4409 16.0557C41.5234 15.976 41.5509 15.8962 41.5509 15.7899V12.0949V11.3772C42.5683 12.2013 43.7233 12.4405 44.8783 12.4405C44.9058 12.4405 44.9333 12.4405 44.9607 12.4405C46.3907 12.4139 47.6282 11.9886 48.4256 11.2709C48.3981 11.2975 48.4256 11.2975 48.4256 11.2709Z" fill="#009CDE"/>
</g>
<defs>
<clipPath id="clip0">
<rect width="74" height="21" fill="white"/>
</clipPath>
</defs>
</svg>
