<svg width="28" height="19" viewBox="0 0 28 19" fill="none" xmlns="http://www.w3.org/2000/svg"><path d="M4.67492 -6.10352e-05L23.3461 -6.10352e-05C25.6438 -6.10352e-05 27.521 1.87713 27.521 4.17486V14.6035C27.521 16.9012 25.6438 18.7784 23.3461 18.7784H4.67492C2.37719 18.7784 0.5 16.9012 0.5 14.6035L0.5 4.17486C0.5 1.87713 2.37719 -6.10352e-05 4.67492 -6.10352e-05ZM21.0876 10.908C22.233 10.908 23.161 11.836 23.161 12.981C23.161 14.126 22.233 15.0544 21.0876 15.0544C20.5382 15.0544 20.0391 14.8405 19.6682 14.4919C19.297 14.8405 18.7976 15.0544 18.2481 15.0544C17.1031 15.0544 16.1751 14.126 16.1751 12.981C16.1751 11.836 17.1031 10.908 18.2481 10.908C18.7976 10.908 19.297 11.1215 19.6682 11.4705C20.0391 11.1215 20.5382 10.908 21.0876 10.908ZM1.98494 7.78237L2.03323 14.6035C2.03323 16.0548 3.22364 17.2452 4.67492 17.2452L23.4173 17.2601C24.8686 17.2601 26.059 16.0697 26.059 14.6184L26.0107 7.79725L1.98494 7.78237ZM2.01625 4.72123L25.9708 4.72123L25.9878 4.17486C25.9878 2.72358 24.7973 1.53317 23.3461 1.53317L4.67492 1.53317C3.22364 1.53317 2.03323 2.72358 2.03323 4.17486L2.01625 4.72123Z" fill="#2D3338"/></svg>