<svg width="23" height="18" viewBox="0 0 23 18" fill="none" xmlns="http://www.w3.org/2000/svg">
<path d="M7.1123 17.3278V16.2004C7.11887 16.1058 7.10521 16.0109 7.07223 15.9221C7.03925 15.8332 6.9877 15.7524 6.92103 15.685C6.85435 15.6176 6.77408 15.5652 6.68556 15.5313C6.59704 15.4973 6.50231 15.4827 6.40768 15.4882C6.28348 15.4801 6.15938 15.5054 6.04833 15.5616C5.93728 15.6178 5.84335 15.7028 5.77634 15.8077C5.71526 15.7059 5.62785 15.6226 5.52335 15.5663C5.41885 15.5101 5.30113 15.4831 5.18257 15.4882C5.07923 15.483 4.97632 15.5049 4.88403 15.5517C4.79175 15.5985 4.7133 15.6686 4.65645 15.7551V15.5333H4.26562V17.3278H4.66021V16.3281C4.65147 16.2667 4.6565 16.204 4.67495 16.1447C4.6934 16.0854 4.7248 16.0309 4.76688 15.9853C4.80896 15.9396 4.86067 15.9038 4.91827 15.8806C4.97586 15.8573 5.0379 15.8472 5.0999 15.8509C5.3592 15.8509 5.49073 16.02 5.49073 16.3244V17.3221H5.88532V16.3281C5.87727 16.2668 5.88279 16.2044 5.90149 16.1454C5.9202 16.0864 5.95163 16.0322 5.99356 15.9867C6.0355 15.9412 6.08692 15.9054 6.14419 15.882C6.20146 15.8585 6.26318 15.8479 6.325 15.8509C6.59182 15.8509 6.71959 16.02 6.71959 16.3244V17.3221L7.1123 17.3278ZM9.31072 16.4315V15.5352H8.91613V15.7532C8.84986 15.6677 8.76415 15.5992 8.66611 15.5534C8.56808 15.5077 8.46054 15.486 8.35244 15.4901C8.10327 15.4901 7.8643 15.5891 7.68811 15.7653C7.51192 15.9415 7.41294 16.1804 7.41294 16.4296C7.41294 16.6788 7.51192 16.9177 7.68811 17.0939C7.8643 17.2701 8.10327 17.3691 8.35244 17.3691C8.46054 17.3733 8.56808 17.3515 8.66611 17.3058C8.76415 17.26 8.84986 17.1916 8.91613 17.1061V17.324H9.30696L9.31072 16.4315ZM7.85826 16.4315C7.86449 16.3258 7.90151 16.2242 7.96476 16.1392C8.028 16.0542 8.11472 15.9896 8.21422 15.9533C8.31373 15.917 8.42168 15.9106 8.52478 15.9349C8.62788 15.9591 8.72163 16.013 8.79449 16.0899C8.86735 16.1668 8.91614 16.2633 8.93484 16.3675C8.95355 16.4718 8.94135 16.5793 8.89976 16.6767C8.85817 16.7741 8.789 16.8572 8.70077 16.9158C8.61253 16.9744 8.50908 17.0059 8.40317 17.0065C8.32837 17.0082 8.25404 16.9943 8.18493 16.9657C8.11581 16.9371 8.05343 16.8943 8.00178 16.8402C7.95013 16.7861 7.91036 16.7218 7.885 16.6514C7.85964 16.581 7.84925 16.5061 7.8545 16.4315H7.85826ZM17.661 15.492C17.7896 15.4917 17.9172 15.5159 18.0368 15.5634C18.1531 15.609 18.2591 15.6774 18.3487 15.7645C18.4356 15.8495 18.5046 15.9511 18.5516 16.0632C18.6498 16.3041 18.6498 16.5739 18.5516 16.8148C18.5047 16.927 18.4357 17.0286 18.3487 17.1136C18.2606 17.1994 18.1565 17.267 18.0424 17.3127C17.7946 17.409 17.5198 17.409 17.272 17.3127C17.1584 17.2671 17.055 17.1994 16.9676 17.1136C16.8815 17.0282 16.8132 16.9267 16.7666 16.8148C16.6686 16.5739 16.6686 16.3042 16.7666 16.0632C16.8132 15.9513 16.8815 15.8498 16.9676 15.7645C17.055 15.6786 17.1584 15.6109 17.272 15.5653C17.3941 15.5147 17.525 15.4885 17.6572 15.4882L17.661 15.492ZM17.661 15.8678C17.5844 15.8667 17.5085 15.8808 17.4374 15.9091C17.3704 15.936 17.3096 15.9763 17.2589 16.0275C17.207 16.0815 17.1668 16.1454 17.1405 16.2154C17.0831 16.3654 17.0831 16.5314 17.1405 16.6814C17.1667 16.7514 17.207 16.8154 17.2589 16.8693C17.3096 16.9206 17.3704 16.9609 17.4374 16.9877C17.5805 17.0437 17.7395 17.0437 17.8827 16.9877C17.9529 16.9617 18.0169 16.9214 18.0706 16.8693C18.1226 16.8155 18.1629 16.7515 18.189 16.6814C18.2464 16.5314 18.2464 16.3654 18.189 16.2154C18.1628 16.1453 18.1225 16.0814 18.0706 16.0275C18.0169 15.9754 17.9529 15.9351 17.8827 15.9091C17.8118 15.8767 17.7351 15.8588 17.6572 15.8565L17.661 15.8678ZM11.434 16.4315C11.434 15.8678 11.0845 15.492 10.5828 15.492C10.3336 15.4955 10.096 15.5978 9.92232 15.7765C9.7486 15.9551 9.65297 16.1955 9.65646 16.4446C9.65995 16.6938 9.76227 16.9314 9.94093 17.1051C10.1196 17.2788 10.3599 17.3745 10.6091 17.371C10.8766 17.3801 11.1381 17.2905 11.3438 17.1192L11.1559 16.8298C11.0075 16.9488 10.8237 17.015 10.6335 17.0177C10.5043 17.0289 10.3759 16.9891 10.2756 16.907C10.1752 16.8249 10.1108 16.7069 10.0961 16.5781H11.4283C11.434 16.533 11.434 16.4841 11.434 16.4315ZM10.098 16.2737C10.1048 16.153 10.1586 16.0399 10.2478 15.9584C10.337 15.8769 10.4545 15.8336 10.5753 15.8377C10.6338 15.8365 10.6919 15.8468 10.7464 15.868C10.8009 15.8892 10.8507 15.921 10.893 15.9615C10.9352 16.002 10.969 16.0504 10.9925 16.1039C11.016 16.1575 11.0288 16.2152 11.03 16.2737H10.098ZM13.0781 15.9918C12.9065 15.893 12.7124 15.84 12.5144 15.8377C12.3002 15.8377 12.1724 15.9167 12.1724 16.0482C12.1724 16.1797 12.3077 16.2023 12.4768 16.2248L12.6647 16.2511C13.0556 16.3075 13.2923 16.4728 13.2923 16.7885C13.2923 17.1042 12.9917 17.3747 12.4749 17.3747C12.198 17.3821 11.926 17.3004 11.6989 17.1417L11.8868 16.8374C12.0593 16.9653 12.2697 17.0315 12.4843 17.0253C12.7512 17.0253 12.894 16.9463 12.894 16.8073C12.894 16.7058 12.7925 16.6495 12.5783 16.6194L12.3904 16.5931C11.9883 16.5367 11.7703 16.3563 11.7703 16.0632C11.7703 15.7062 12.0634 15.4882 12.5219 15.4882C12.7785 15.4796 13.0322 15.5449 13.2528 15.6761L13.0781 15.9918ZM14.9571 15.8903H14.3201V16.7039C14.3201 16.8918 14.384 17.0046 14.5794 17.0046C14.7014 17.0005 14.8203 16.9656 14.9251 16.9031L15.0379 17.2376C14.8914 17.329 14.722 17.3772 14.5494 17.3766C14.0871 17.3766 13.9255 17.1286 13.9255 16.7115V15.8941H13.561V15.5371H13.9255V14.9922H14.3201V15.5371H14.9571V15.8903ZM16.3081 15.4882C16.4029 15.4886 16.4969 15.5051 16.5862 15.5371L16.4659 15.9129C16.3883 15.8819 16.3053 15.8666 16.2217 15.8678C15.9661 15.8678 15.8459 16.0331 15.8459 16.33V17.3353H15.455V15.5409H15.8421V15.7588C15.8901 15.6764 15.9594 15.6085 16.0427 15.5622C16.126 15.5159 16.2203 15.493 16.3156 15.4958L16.3081 15.4882ZM19.0101 17.0647C19.0345 17.0644 19.0588 17.0689 19.0815 17.0779C19.1031 17.0867 19.1228 17.0994 19.1397 17.1154C19.1562 17.1316 19.1696 17.1508 19.1792 17.1718C19.1887 17.1938 19.1936 17.2174 19.1936 17.2413C19.1936 17.2653 19.1887 17.2889 19.1792 17.3109C19.1696 17.3319 19.1562 17.351 19.1397 17.3672C19.1228 17.3833 19.1031 17.396 19.0815 17.4048C19.059 17.4147 19.0347 17.4199 19.0101 17.4198C18.9745 17.4196 18.9397 17.4092 18.9097 17.3899C18.8798 17.3706 18.8559 17.3432 18.841 17.3109C18.8316 17.2889 18.8267 17.2652 18.8267 17.2413C18.8267 17.2174 18.8316 17.1938 18.841 17.1718C18.8505 17.1508 18.8639 17.1316 18.8804 17.1154C18.8974 17.0994 18.9171 17.0867 18.9387 17.0779C18.9586 17.0706 18.9795 17.0668 19.0007 17.0666L19.0101 17.0647ZM19.0101 17.3823C19.0288 17.3824 19.0474 17.3785 19.0646 17.371C19.0807 17.3638 19.0954 17.3536 19.1078 17.3409C19.1237 17.3249 19.1355 17.3052 19.1421 17.2835C19.1487 17.2619 19.1499 17.239 19.1457 17.2168C19.1414 17.1946 19.1318 17.1737 19.1177 17.1561C19.1035 17.1384 19.0853 17.1245 19.0646 17.1154C19.0474 17.108 19.0288 17.1041 19.0101 17.1042C18.9914 17.1043 18.9728 17.1081 18.9556 17.1154C18.9387 17.1224 18.9234 17.1326 18.9105 17.1455C18.887 17.1712 18.874 17.2047 18.874 17.2395C18.874 17.2742 18.887 17.3078 18.9105 17.3334C18.9235 17.3466 18.939 17.357 18.9561 17.3641C18.9732 17.3712 18.9916 17.3748 19.0101 17.3747V17.3823ZM19.0214 17.1587C19.0389 17.1578 19.0562 17.1631 19.0702 17.1737C19.076 17.1785 19.0805 17.1845 19.0834 17.1914C19.0864 17.1982 19.0876 17.2057 19.0871 17.2132C19.0874 17.2194 19.0864 17.2256 19.0841 17.2314C19.0818 17.2373 19.0784 17.2426 19.074 17.247C19.0631 17.2569 19.0492 17.2628 19.0345 17.2639L19.089 17.3259H19.0458L18.995 17.2639H18.9781V17.3259H18.9424V17.1605L19.0214 17.1587ZM18.98 17.1906V17.2357H19.0214C19.0287 17.2379 19.0365 17.2379 19.0439 17.2357C19.0452 17.2331 19.0459 17.2302 19.0459 17.2272C19.0459 17.2243 19.0452 17.2214 19.0439 17.2188C19.0452 17.2162 19.0459 17.2133 19.0459 17.2103C19.0459 17.2074 19.0452 17.2045 19.0439 17.2019C19.0365 17.1997 19.0287 17.1997 19.0214 17.2019L18.98 17.1906Z" fill="black"/>
<path d="M14.3915 1.8457H8.47266V12.4827H14.3915V1.8457Z" fill="#7673C0"/>
<path d="M8.84881 7.16187C8.848 6.13763 9.08019 5.12661 9.5278 4.20535C9.97541 3.28409 10.6267 2.47672 11.4324 1.84433C10.4345 1.06008 9.23609 0.572397 7.97413 0.437027C6.71217 0.301657 5.43758 0.524055 4.29603 1.07881C3.15449 1.63356 2.19205 2.49829 1.51871 3.57415C0.845363 4.65001 0.488281 5.89361 0.488281 7.16282C0.488281 8.43202 0.845363 9.67562 1.51871 10.7515C2.19205 11.8273 3.15449 12.6921 4.29603 13.2468C5.43758 13.8016 6.71217 14.024 7.97413 13.8886C9.23609 13.7532 10.4345 13.2656 11.4324 12.4813C10.6265 11.8487 9.97501 11.041 9.52738 10.1194C9.07976 9.19782 8.84772 8.18644 8.84881 7.16187Z" fill="#EB001B"/>
<path d="M21.729 11.3549V11.1369H21.8174V11.0918H21.5938V11.1369H21.6821V11.3549H21.729ZM22.1631 11.3549V11.0918H22.0954L22.0165 11.2797L21.9376 11.0918H21.87V11.3549H21.9188V11.1576L21.9921 11.3286H22.0428L22.1161 11.1576V11.3567L22.1631 11.3549Z" fill="#00A1DF"/>
<path d="M22.3748 7.16258C22.3748 8.43188 22.0176 9.67556 21.3442 10.7515C20.6707 11.8274 19.7081 12.6921 18.5664 13.2467C17.4247 13.8014 16.15 14.0237 14.888 13.8881C13.626 13.7525 12.4275 13.2646 11.4297 12.4801C12.2351 11.8472 12.8862 11.0396 13.3339 10.1183C13.7817 9.19696 14.0143 8.18599 14.0143 7.16164C14.0143 6.1373 13.7817 5.12633 13.3339 4.20502C12.8862 3.2837 12.2351 2.47611 11.4297 1.84316C12.4275 1.05866 13.626 0.570743 14.888 0.435179C16.15 0.299614 17.4247 0.521873 18.5664 1.07655C19.7081 1.63122 20.6707 2.49593 21.3442 3.57183C22.0176 4.64773 22.3748 5.89141 22.3748 7.1607V7.16258Z" fill="#00A1DF"/>
</svg>
