<svg width="82" height="24" viewBox="0 0 82 24" fill="none" xmlns="http://www.w3.org/2000/svg"><g clip-path="url(#clip0)"><path d="M4.82983 20.1726C5.10324 20.1726 5.3159 19.9599 5.3159 19.6865C5.3159 19.4131 5.10324 19.2004 4.82983 19.2004C4.55641 19.2004 4.34375 19.4131 4.34375 19.6865C4.34375 19.9599 4.55641 20.1726 4.82983 20.1726Z" fill="#2D3338"/><path d="M41.8025 23.9392C42.0759 23.9392 42.2886 23.7265 42.2886 23.4531C42.2886 23.1797 42.0759 22.967 41.8025 22.967C41.5291 22.967 41.3164 23.1797 41.3164 23.4531C41.3164 23.7265 41.5291 23.9392 41.8025 23.9392Z" fill="#2D3338"/><path d="M19.1703 21.0226C19.1703 20.4757 18.988 20.0201 18.6538 19.7163L18.6235 19.6859C18.3197 19.4125 17.864 19.2606 17.3779 19.2606C17.3475 19.2606 17.3475 19.2606 17.3475 19.2606H17.3171C16.8007 19.2606 16.3754 19.4125 16.0716 19.6859L15.95 19.7466C15.6159 20.0504 15.4336 20.5061 15.4336 21.0226V23.7871C15.4336 23.8175 15.464 23.8479 15.464 23.8783C15.4944 23.9087 15.5247 23.9087 15.5551 23.9087H16.0412C16.0716 23.9087 16.1323 23.9087 16.1323 23.8783C16.1627 23.8479 16.1627 23.8175 16.1627 23.7871V21.1137C16.1627 20.7188 16.2538 20.4454 16.4361 20.2631C16.6184 20.0808 16.8918 19.9897 17.2564 19.9897C17.6209 19.9897 17.8944 20.1112 18.0463 20.2631C18.2285 20.4454 18.3197 20.7188 18.3197 21.1137V23.7871C18.3197 23.8175 18.35 23.8479 18.35 23.8783C18.3804 23.9087 18.4108 23.9087 18.4412 23.9087H18.9273C18.9576 23.9087 19.0184 23.9087 19.0184 23.8783C19.0488 23.8479 19.0488 23.8175 19.0488 23.7871L19.1703 21.0226Z" fill="#2D3338"/><path d="M36.3018 21.0226C36.3018 20.4757 36.1195 20.0201 35.7854 19.7163L35.755 19.6859C35.4512 19.4125 34.9955 19.2606 34.5094 19.2606C34.479 19.2606 34.479 19.2606 34.479 19.2606H34.4487C33.9322 19.2606 33.5069 19.4125 33.2031 19.6859L33.1727 19.7163C32.8385 20.0201 32.6562 20.4757 32.6562 20.9922V23.7568C32.6562 23.7871 32.6866 23.8175 32.6866 23.8479C32.717 23.8783 32.7474 23.8783 32.7778 23.8783H33.2638C33.2942 23.8783 33.355 23.8783 33.355 23.8479C33.3854 23.8175 33.3854 23.7871 33.3854 23.7568V21.0833C33.3854 20.6884 33.4765 20.415 33.6588 20.2327C33.8411 20.0504 34.1145 19.9593 34.479 19.9593C34.8436 19.9593 35.117 20.0808 35.2689 20.2327C35.4512 20.415 35.5423 20.6884 35.5423 21.0833V23.7568C35.5423 23.7871 35.5727 23.8175 35.5727 23.8479C35.6031 23.8783 35.6335 23.8783 35.6638 23.8783H36.1499C36.1803 23.8783 36.2411 23.8783 36.2411 23.8479C36.2714 23.8175 36.2714 23.7871 36.2714 23.7568L36.3018 21.0226Z" fill="#2D3338"/><path d="M27.1291 21.6303C27.1291 22.086 27.0684 22.5113 26.9165 22.8151C26.7646 23.1189 26.4911 23.3012 25.9747 23.3012C25.9747 23.3012 25.9747 23.3012 25.9443 23.3012C25.4278 23.3012 25.1544 23.0885 25.0025 22.7847C24.8203 22.4809 24.7899 22.0556 24.7899 21.5999V21.5695C24.7899 21.1442 24.8506 20.7796 25.0025 20.4759C25.1544 20.1721 25.4278 19.9898 25.9443 19.9594C26.4608 19.9594 26.7342 20.1721 26.8861 20.4759C27.0684 20.81 27.1291 21.1746 27.1291 21.6303ZM27.281 19.7467C27.281 19.7467 27.2506 19.7467 27.281 19.7467C27.0076 19.4733 26.5519 19.3214 26.0354 19.3214H26.0051C25.5797 19.3214 25.1544 19.4126 24.7899 19.7164V19.4429V18.0455C24.7899 18.0151 24.7595 17.9847 24.7595 17.9543C24.7291 17.9239 24.6987 17.924 24.6684 17.924H24.1823C24.1519 17.924 24.0911 17.9239 24.0911 17.9543C24 17.9847 24 18.0455 24 18.0758V19.4733V22.4202V23.8176C24 23.848 24.0304 23.8784 24.0304 23.9088C24.0608 23.9391 24.0911 23.9391 24.1215 23.9391H24.6076C24.638 23.9391 24.6987 23.9391 24.6987 23.9088C24.7291 23.8784 24.7291 23.848 24.7291 23.8176V23.5442C25.0633 23.9088 25.519 24.0303 25.9443 24.0303H25.9747C26.4911 24.0303 26.9468 23.8784 27.2203 23.605C27.7367 23.1189 27.8582 22.3594 27.8582 21.6607C27.8886 20.9315 27.7975 20.2632 27.281 19.7467Z" fill="#2D3338"/><path d="M14.064 22.2378C14.064 22.6023 13.9729 22.815 13.8817 22.9061C13.6083 23.1492 13.3045 23.1796 12.9096 23.1796C12.5147 23.1796 12.2716 23.1188 12.1501 22.9973C12.0286 22.9061 11.9374 22.7542 11.9374 22.5112C11.9374 22.2682 11.9982 22.1163 12.1501 22.0251C12.302 21.9036 12.545 21.8429 12.8792 21.8429H14.0944V22.2378H14.064ZM14.8843 20.8403C14.8843 20.3542 14.7324 19.9593 14.3982 19.6859C14.064 19.4125 13.6083 19.291 13.0007 19.291H12.9704C12.3324 19.291 11.8159 19.4429 11.4514 19.8378L11.421 19.8682C11.3906 19.8985 11.3602 19.9289 11.3298 19.9593L11.2995 20.0201C11.2691 20.0504 11.2387 20.0808 11.2387 20.1112C11.2387 20.1416 11.2691 20.172 11.2995 20.2023L11.3298 20.2327L11.3602 20.2631L11.4514 20.3239L11.6944 20.5365C11.7248 20.5669 11.7552 20.5669 11.7855 20.5669C11.8159 20.5669 11.8463 20.5365 11.8767 20.5061L12.0286 20.3239C12.1197 20.2327 12.2109 20.1416 12.3324 20.1112C12.4843 20.0504 12.6969 20.0201 13.0007 19.9897C13.426 19.9897 13.6995 20.0808 13.8514 20.2023C14.0033 20.3239 14.064 20.5365 14.0944 20.8403V21.1441H12.8488C12.3324 21.1441 11.9071 21.2656 11.6033 21.5087C11.2995 21.7517 11.1172 22.1163 11.1172 22.5112V22.5416C11.1172 22.9061 11.2387 23.2403 11.4817 23.4834C11.8159 23.7872 12.2412 23.9087 12.8792 23.9087H13.2134C13.821 23.9087 14.2463 23.7568 14.5197 23.453C14.7931 23.1492 14.9147 22.7239 14.9147 22.2074L14.8843 20.8403Z" fill="#2D3338"/><path d="M29.0438 22.572C29.0438 22.3289 29.1045 22.177 29.2564 22.0859C29.4083 21.9644 29.6514 21.9036 29.9855 21.9036H31.2007V22.2682C31.2007 22.6327 31.1096 22.8454 31.0185 22.9365C30.745 23.1796 30.4412 23.2099 30.0463 23.2099C29.6514 23.2099 29.4083 23.1492 29.2868 23.0277C29.1045 22.9365 29.0438 22.7846 29.0438 22.572ZM32.021 20.8403C32.021 20.3542 31.8691 19.9593 31.5349 19.6859C31.2007 19.4125 30.745 19.291 30.1374 19.291H30.1071C29.4691 19.291 28.9526 19.4429 28.5881 19.8378L28.5577 19.8682C28.5273 19.8986 28.4969 19.9289 28.4666 19.9593L28.4362 20.0201C28.4058 20.0504 28.4058 20.0808 28.4058 20.1112C28.4058 20.1416 28.4362 20.172 28.4666 20.2023L28.4969 20.2327L28.5273 20.2631L28.6185 20.3239L28.8615 20.5365C28.8919 20.5669 28.9223 20.5669 28.9526 20.5669C28.983 20.5669 29.0134 20.5365 29.0438 20.5061L29.1653 20.3542C29.2564 20.2631 29.3476 20.172 29.4691 20.1416C29.621 20.0808 29.8337 20.0504 30.1374 20.0504C30.5628 20.0504 30.8362 20.1416 30.9881 20.2631C31.14 20.3846 31.2007 20.5973 31.2311 20.9011V21.2049H29.9855C29.4691 21.2049 29.0438 21.3264 28.74 21.5694C28.4362 21.8125 28.2539 22.177 28.2539 22.572V22.6023C28.2539 22.9669 28.3754 23.3011 28.6185 23.5441C28.9526 23.8479 29.378 23.9694 30.0159 23.9694H30.3501C30.9577 23.9694 31.383 23.8175 31.6564 23.5137C31.9299 23.2099 32.0514 22.7846 32.0514 22.2682L32.021 20.8403Z" fill="#2D3338"/><path d="M7.32193 19.3217H6.50168V18.4711V18.0762C6.50168 18.0154 6.44092 17.9547 6.34978 17.9547H5.86371C5.83333 17.9547 5.80295 17.9547 5.77257 17.985C5.74219 18.0154 5.74219 18.0458 5.74219 18.0762V18.8357V22.785C5.74219 23.1192 5.83333 23.3926 6.04598 23.6053C6.22826 23.8179 6.56244 23.9395 6.927 23.9395H7.17004H7.38269C7.41307 23.9395 7.44345 23.9091 7.47383 23.9091C7.50421 23.8787 7.50421 23.8483 7.50421 23.8179V23.3319C7.50421 23.3015 7.50421 23.2407 7.47383 23.2407C7.44345 23.2103 7.41307 23.2104 7.38269 23.2104H6.98776C6.89662 23.2104 6.83586 23.2104 6.80548 23.18C6.68396 23.0888 6.68396 23.0888 6.65358 23.0585C6.6232 23.0281 6.6232 23.0281 6.59282 22.9977C6.53206 22.9066 6.4713 22.785 6.4713 22.6028V20.0509H7.29155C7.32193 20.0509 7.35231 20.0205 7.38269 20.0205C7.41307 19.9901 7.41307 19.9597 7.41307 19.9293V19.4433C7.41307 19.4129 7.41307 19.3521 7.38269 19.3521C7.38269 19.3217 7.35231 19.3217 7.32193 19.3217Z" fill="#2D3338"/><path d="M10.8731 19.8682L10.8123 19.8074C10.8123 19.8074 10.8123 19.8074 10.8123 19.777L10.7819 19.7467H10.7515L10.7212 19.7163C10.4477 19.4125 10.0832 19.291 9.71863 19.291H9.68825C9.41483 19.291 9.11104 19.4125 8.92876 19.6251L8.80724 19.777V19.7163V19.4429C8.80724 19.4125 8.77686 19.3821 8.77686 19.3517C8.74648 19.3213 8.7161 19.3213 8.68572 19.3213H8.19964C8.16926 19.3213 8.1085 19.3213 8.1085 19.3517C8.07813 19.3821 8.07812 19.4125 8.07812 19.4429V19.7163V23.7872C8.07812 23.8175 8.1085 23.8479 8.1085 23.8783C8.13888 23.9087 8.16926 23.9087 8.19964 23.9087H8.29078H8.59458H8.68572C8.7161 23.9087 8.77686 23.9087 8.77686 23.8783C8.80724 23.8479 8.80724 23.8175 8.80724 23.7872V23.7264V21.1441V20.9315C8.80724 20.6884 8.89838 20.4758 9.0199 20.3239C9.14142 20.1416 9.35407 20.0504 9.62749 20.0504C9.77939 20.0504 9.87053 20.0808 9.93129 20.1112C10.0224 20.1416 10.0832 20.2023 10.1743 20.2935L10.2047 20.3239L10.2958 20.4454C10.3262 20.4758 10.3566 20.4758 10.387 20.4758C10.4174 20.4758 10.4781 20.4758 10.4781 20.4454L10.8427 20.1112C10.8731 20.0808 10.9034 20.0504 10.9034 20.0201C10.9338 19.9593 10.9034 19.8985 10.8731 19.8682Z" fill="#2D3338"/><path d="M23.0874 21.5387C22.7836 21.3261 22.4494 21.2653 22.0545 21.2349L21.3254 21.1742C21.0216 21.1438 20.8393 21.083 20.7178 20.9919C20.6267 20.9311 20.5659 20.8096 20.5659 20.6273C20.5659 20.4147 20.657 20.2628 20.7786 20.1716C20.9305 20.0501 21.1735 19.9894 21.5077 19.9894C21.933 19.9894 22.2975 20.0805 22.6013 20.2932L22.7836 20.4147C22.814 20.445 22.8444 20.445 22.8748 20.445C22.9051 20.445 22.9355 20.4147 22.9659 20.3843L23.2393 19.9894C23.2697 19.959 23.2697 19.9286 23.2697 19.8678C23.2697 19.8375 23.2697 19.8375 23.2393 19.8071C23.2393 19.7767 23.2089 19.7767 23.2089 19.7463L23.1786 19.7159C22.7532 19.4121 22.1456 19.2299 21.5077 19.2299C20.9912 19.2299 20.5355 19.3514 20.2317 19.5944C19.9279 19.8375 19.7153 20.1716 19.7153 20.5969C19.7153 20.9615 19.8368 21.2653 20.1102 21.478C20.3836 21.6906 20.7482 21.8121 21.2343 21.8425L21.9634 21.9033C22.2368 21.9337 22.4191 21.9944 22.5102 22.0856C22.6013 22.1463 22.6621 22.2678 22.6621 22.4501C22.6621 22.6628 22.571 22.845 22.3887 22.9362C22.2064 23.0577 21.9026 23.1185 21.5077 23.1185C20.9608 23.1185 20.5659 22.9969 20.2621 22.7539L20.1102 22.6324C20.0798 22.602 20.0494 22.602 20.0191 22.602C19.9887 22.602 19.9583 22.6324 19.9279 22.6628L19.6241 23.0273C19.5937 23.0577 19.5938 23.0881 19.5938 23.1488C19.5938 23.1792 19.6241 23.2096 19.6545 23.24L19.8064 23.3615L19.8368 23.3919C20.2925 23.7261 20.8697 23.878 21.5684 23.878C22.1456 23.878 22.6317 23.7564 22.9963 23.5134C23.3608 23.2704 23.5431 22.9058 23.5431 22.4805V22.4501C23.5127 22.0856 23.3608 21.7514 23.0874 21.5387Z" fill="#2D3338"/><path d="M40.889 23.7268L40.2814 22.8762L39.0662 21.1141L40.008 20.1116L40.5549 19.5344L40.5852 19.504C40.646 19.4433 40.6156 19.3825 40.5852 19.3521C40.5549 19.3217 40.5245 19.3217 40.4941 19.3217H39.8561C39.8257 19.3217 39.765 19.3521 39.7346 19.3825L37.608 21.6306V19.7471V18.0762C37.608 18.0458 37.5776 18.0154 37.5776 17.985C37.5473 17.9547 37.5169 17.9547 37.4865 17.9547H37.0004C36.97 17.9547 36.9093 17.9547 36.9093 17.985C36.8789 18.0154 36.8789 18.0458 36.8789 18.0762V19.7471V23.8179C36.8789 23.8483 36.9093 23.8787 36.9093 23.9091C36.9397 23.9395 36.97 23.9395 37.0004 23.9395H37.4865C37.5169 23.9395 37.5776 23.9395 37.5776 23.9091C37.608 23.8787 37.608 23.8483 37.608 23.8179V22.6635L38.5194 21.661L39.127 22.5724L40.008 23.8787C40.0384 23.9091 40.0688 23.9395 40.1295 23.9395H40.7675C40.7979 23.9395 40.8587 23.9395 40.8587 23.9091C40.9194 23.8787 40.9498 23.7876 40.889 23.7268Z" fill="#2D3338"/><path d="M35.4844 17.9547H35.5755L35.697 18.3192L35.8185 17.9547H35.9097V18.4104H35.8489V18.1369V18.1066C35.8489 18.0762 35.8489 18.0762 35.8489 18.0458L35.7274 18.4104H35.6667L35.5451 18.0458V18.1066C35.5451 18.1369 35.5451 18.1369 35.5451 18.1673V18.4407H35.4844V17.9547Z" fill="#2D3338"/><path d="M36.365 18.1673C36.3954 18.1673 36.4258 18.1673 36.4258 18.1369C36.4258 18.1369 36.4561 18.1066 36.4561 18.0762C36.4561 18.0458 36.4561 18.0154 36.4258 18.0154C36.4258 18.0154 36.3954 18.0154 36.365 18.0154H36.2131V18.1673H36.365ZM36.1523 17.9547H36.365C36.3954 17.9547 36.4258 17.9547 36.4561 17.9547C36.4865 17.985 36.5169 18.0154 36.5169 18.0458C36.5169 18.0762 36.5169 18.1066 36.4865 18.1066C36.4865 18.1369 36.4561 18.1369 36.4258 18.1369C36.4561 18.1369 36.4561 18.1673 36.4561 18.1673C36.4561 18.1673 36.4561 18.1977 36.4561 18.2281V18.2888C36.4561 18.3192 36.4561 18.3192 36.4561 18.3192C36.4561 18.3192 36.4561 18.3496 36.4865 18.3496H36.4561V18.3192V18.2585C36.4561 18.2281 36.4561 18.1977 36.4258 18.1977C36.4258 18.1977 36.3954 18.1977 36.365 18.1977H36.2435V18.38H36.1523V17.9547Z" fill="#2D3338"/><path d="M36.0304 18.4098C36 18.4098 36 18.4098 36 18.3794C36 18.3491 36 18.3491 36.0304 18.3491C36.0608 18.3491 36.0608 18.3491 36.0608 18.3794C36.0608 18.3794 36.0608 18.4098 36.0304 18.4098Z" fill="#2D3338"/><path d="M36.6398 18.4098C36.6094 18.4098 36.6094 18.4098 36.6094 18.3794C36.6094 18.3491 36.6094 18.3491 36.6398 18.3491C36.6701 18.3491 36.6701 18.3491 36.6701 18.3794C36.6701 18.3794 36.6701 18.4098 36.6398 18.4098Z" fill="#2D3338"/><path d="M10.0248 0.0907593C8.44502 0.0907593 7.07793 0.637595 6.04502 1.67051C4.55641 3.18949 4.34375 5.2857 4.34375 7.13886C4.34375 8.99202 4.55641 11.0882 6.04502 12.6072C7.07793 13.6401 8.44502 14.187 10.0248 14.187C11.6045 14.187 12.9716 13.6401 14.0045 12.6072C15.4931 11.0882 15.7058 8.99202 15.7058 7.13886C15.7058 5.2857 15.4931 3.18949 14.0045 1.67051C12.9716 0.637595 11.5741 0.0907593 10.0248 0.0907593ZM7.7159 3.12873C8.3235 2.52114 9.11337 2.18696 10.0248 2.18696C10.9362 2.18696 11.7564 2.52114 12.364 3.12873C13.3058 4.07051 13.3665 5.71101 13.3665 7.16924C13.3665 8.62747 13.2754 10.268 12.364 11.2097C11.7564 11.8173 10.9362 12.1515 10.0248 12.1515C9.11337 12.1515 8.3235 11.8173 7.7159 11.2097C6.80451 10.2984 6.68299 8.71861 6.68299 7.16924C6.65261 5.58949 6.80451 4.04013 7.7159 3.12873Z" fill="#2D3338"/><path d="M28.619 5.31646C28.619 3.67595 28.0418 2.30886 27.0088 1.36709L26.9481 1.30633H26.9177C25.9455 0.455696 24.6392 0.0303797 23.0899 0H23.0595H23.0291C22.9683 0 22.938 0 22.938 0C22.9076 0 22.8772 0 22.8468 0H22.8164H22.7861H22.7557C21.2063 0.0303797 19.9 0.455696 18.9278 1.27595L18.8367 1.36709C17.8038 2.27848 17.2569 3.67595 17.2266 5.28608V13.6709C17.2266 13.7924 17.2873 13.8835 17.3481 13.9747C17.4392 14.0658 17.5607 14.0962 17.6519 14.0962H19.1405C19.262 14.0962 19.3835 14.0354 19.4443 13.9747C19.5354 13.8835 19.5658 13.7924 19.5658 13.6709V5.55949C19.5658 4.37468 19.8696 3.52405 20.4164 2.97722C20.9936 2.43038 21.8139 2.12658 22.9076 2.12658C24.0316 2.12658 24.8215 2.43038 25.3683 2.97722C25.9152 3.52405 26.219 4.37468 26.219 5.55949V13.6709C26.219 13.7924 26.2797 13.8835 26.3405 13.9747C26.4316 14.0658 26.5531 14.0962 26.6443 14.0962H28.1329C28.2544 14.0962 28.3759 14.0354 28.4367 13.9747C28.5278 13.8835 28.5582 13.7924 28.5582 13.6709L28.619 5.31646Z" fill="#2D3338"/><path d="M74.9461 15.4334C74.8246 15.798 74.5815 16.3448 74.4296 16.7094C74.4296 16.7094 74.1562 17.317 73.7613 17.7423C73.3967 18.1068 72.9714 18.3499 72.5157 18.5018C72.06 18.6537 71.7258 18.6537 71.7258 18.6537C71.3613 18.6841 70.8144 18.7144 70.5106 18.7144C70.2068 18.7144 69.9638 18.4106 69.9638 18.0157V17.0132C69.9638 16.6486 70.1157 16.3144 70.298 16.3144C70.4802 16.3144 70.9359 16.2841 71.3309 16.2537C71.3309 16.2537 71.6043 16.2233 71.8777 16.0106C72.1511 15.798 72.2727 15.5246 72.2727 15.5246C72.4245 15.1904 72.6676 14.6132 72.7891 14.2486L73.0625 13.4891C73.184 13.1246 73.184 12.5473 73.0625 12.2132L68.9005 0.85114C68.779 0.486583 68.9613 0.213165 69.3562 0.213165H70.8144C71.179 0.213165 71.6043 0.516963 71.7258 0.85114L74.4296 8.87139C74.5511 9.23595 74.7334 9.23595 74.8549 8.87139L77.498 0.85114C77.6195 0.486583 78.0144 0.213165 78.4094 0.213165H79.898C80.2625 0.213165 80.4752 0.516963 80.3537 0.85114L74.9461 15.4334Z" fill="#2D3338"/><path d="M59.0884 9.93409V9.90371C59.0884 9.17459 59.301 8.74928 59.7263 8.4151C60.1517 8.08092 60.8808 7.86827 61.9745 7.86827H65.62V8.99232C65.62 10.1164 65.377 10.724 65.0428 10.9974C64.2529 11.7265 63.2808 11.848 62.0656 11.848H62.0352C60.8808 11.848 60.1213 11.6354 59.696 11.3316C59.301 11.0885 59.1188 10.6632 59.0884 9.93409ZM68.0808 4.73915C68.0808 3.3113 67.6251 2.09611 66.6226 1.30624C65.62 0.485986 64.1922 0.121429 62.3694 0.121429H62.3086H62.2782C60.3643 0.121429 58.815 0.546746 57.6605 1.76194L57.5998 1.8227C57.5086 1.91383 57.4175 2.00497 57.3567 2.12649L57.2352 2.27839C57.1744 2.36953 57.1137 2.49105 57.1441 2.58219C57.1441 2.70371 57.2048 2.79485 57.296 2.88599L57.3567 2.94675C57.3871 2.97713 57.4175 3.00751 57.4479 3.03789L57.7213 3.25054L58.42 3.85814C58.5112 3.94928 58.6327 3.97966 58.7238 3.97966C58.8453 3.97966 58.9365 3.9189 59.0276 3.82776L59.4833 3.3113C59.7567 3.00751 60.0605 2.79485 60.3947 2.64295C60.8808 2.43029 61.5188 2.33915 62.3998 2.30877H62.4301C63.7061 2.30877 64.496 2.58219 64.982 2.97713C65.4377 3.37206 65.6808 3.97966 65.6808 4.89105V4.92143V5.80244H61.8833C60.3339 5.80244 59.058 6.167 58.1466 6.86573C57.2352 7.56447 56.7188 8.65814 56.7188 9.93409V9.99485C56.7188 11.0581 57.1137 12.0911 57.8428 12.8202C58.815 13.7923 60.1213 14.1265 62.0656 14.1265H62.096H63.0985C64.8909 14.1265 66.1972 13.6708 67.0175 12.7898C67.8377 11.9088 68.1719 10.6024 68.1719 8.99232L68.0808 4.73915Z" fill="#2D3338"/><path d="M1.42785 3.09924C2.21772 3.09924 2.8557 2.46127 2.8557 1.67139C2.8557 0.88152 2.21772 0.213165 1.42785 0.213165C0.637975 0.213165 0 0.85114 0 1.64101C0 2.43089 0.637975 3.09924 1.42785 3.09924Z" fill="#2D3338"/><path d="M80.3263 14.1574C81.1162 14.1574 81.7541 13.5194 81.7541 12.7295C81.7541 11.9396 81.1162 11.3017 80.3263 11.3017C79.5364 11.3017 78.8984 11.9396 78.8984 12.7295C78.8984 13.5194 79.5364 14.1574 80.3263 14.1574Z" fill="#2D3338"/><path d="M41.8017 6.71421C41.8017 2.58257 39.6144 0.0306702 36.0903 0.0306702C32.5055 0.0306702 30.3789 2.67371 30.3789 7.10915C30.3789 11.6661 32.5359 14.1876 36.4549 14.1876C38.8852 14.1876 40.1916 13.3674 41.4979 12.0611L41.6802 11.8788L40.0093 10.3902L39.8574 10.5421C38.7941 11.6054 37.9131 12.0003 36.5156 12.0003C34.2068 12.0003 32.9004 10.5421 32.8093 7.83826H41.8017V6.71421ZM32.8093 5.92434C32.87 5.07371 32.9308 4.67877 33.1738 4.01042C33.6599 2.85599 34.784 2.15725 36.0903 2.15725C37.3966 2.15725 38.5207 2.88637 39.0068 4.01042C39.2802 4.64839 39.3409 5.04333 39.3713 5.92434H32.8093Z" fill="#2D3338"/><path d="M53.0419 7.26076C53.0419 8.59747 52.89 9.66076 52.4039 10.6025C51.8874 11.5139 51.0975 12.1215 49.5178 12.1215H49.4874H49.457C47.8773 12.1215 47.057 11.5139 46.571 10.6025C46.0545 9.66076 45.9026 8.59747 45.9026 7.26076V7.16962C45.9026 5.83291 46.0545 4.4962 46.571 3.55443C47.0874 2.64304 47.8773 2.03544 49.457 2.03544H49.4874C49.5178 2.03544 49.5482 2.03544 49.5482 2.03544C51.0976 2.06582 51.9178 2.67342 52.4039 3.55443C52.9203 4.4962 53.0419 5.80253 53.0722 7.13924V7.16962V7.2V7.26076H53.0419ZM53.4976 12.881C55.0469 11.3924 55.4115 9.35696 55.4115 7.23038C55.4115 5.1038 55.0469 2.79494 53.4672 1.27595C52.6165 0.486076 51.2494 0 49.7001 0H49.6089C48.3026 0 46.9051 0.364557 45.933 1.48861V0.637975C45.933 0.516456 45.8722 0.425316 45.8115 0.334177C45.7203 0.243038 45.5988 0.212658 45.5077 0.212658H44.0494C43.9279 0.212658 43.8064 0.243038 43.7153 0.334177C43.6241 0.425316 43.5938 0.516456 43.5938 0.637975V4.83038V13.8228V18.0456C43.5938 18.1671 43.6545 18.2582 43.7153 18.3494C43.8064 18.4405 43.9279 18.4709 44.0191 18.4709H45.4773C45.5988 18.4709 45.7203 18.4101 45.7811 18.3494C45.8722 18.2582 45.9026 18.1671 45.9026 18.0456V13.8228V13.0025C47.0267 13.9443 48.3026 14.2177 49.5786 14.2177C49.6089 14.2177 49.6393 14.2177 49.6697 14.2177C51.2494 14.1873 52.6165 13.7013 53.4976 12.881C53.4672 12.9114 53.4976 12.9114 53.4976 12.881Z" fill="#2D3338"/></g><defs><clipPath id="clip0"><rect width="81.7519" height="24" fill="white"/></clipPath></defs></svg>