<svg width="28" height="19" viewBox="0 0 28 19" fill="none" xmlns="http://www.w3.org/2000/svg"><path d="M4.67492 -0.000183105L23.3461 -0.000183105C25.6438 -0.000183105 27.521 1.87701 27.521 4.17474L27.521 14.6034C27.521 16.9011 25.6438 18.7783 23.3461 18.7783L4.67492 18.7783C2.37719 18.7783 0.5 16.9011 0.5 14.6034L0.5 4.17474C0.5 1.87701 2.37719 -0.000183105 4.67492 -0.000183105ZM1.98494 7.78225L2.03323 14.6034C2.03323 16.0547 3.22364 17.2451 4.67492 17.2451L23.4173 17.26C24.8686 17.26 26.059 16.0695 26.059 14.6183L26.0107 7.79713L1.98494 7.78225ZM2.01625 4.72111L25.9708 4.72111L25.9878 4.17474C25.9878 2.72346 24.7973 1.53305 23.3461 1.53305L4.67492 1.53305C3.22364 1.53305 2.03323 2.72346 2.03323 4.17474L2.01625 4.72111Z" fill="#2D3338"/></svg>