<svg width="68" height="20" viewBox="0 0 68 20" fill="none" xmlns="http://www.w3.org/2000/svg">
<path d="M65 20H2.5C1.1 20 0 18.9 0 17.5V2.5C0 1.1 1.1 0 2.5 0H65C66.4 0 67.5 1.1 67.5 2.5V17.5C67.5 18.85 66.4 20 65 20Z" fill="black"/>
<path d="M65 0.4C66.15 0.4 67.1 1.35 67.1 2.5V17.5C67.1 18.65 66.15 19.6 65 19.6H2.5C1.35 19.6 0.4 18.65 0.4 17.5V2.5C0.4 1.35 1.35 0.4 2.5 0.4H65ZM65 0H2.5C1.1 0 0 1.1 0 2.5V17.5C0 18.9 1.1 20 2.5 20H65C66.4 20 67.5 18.9 67.5 17.5V2.5C67.5 1.15 66.4 0 65 0Z" fill="#A6A6A6"/>
<path d="M34.0508 10.9008C32.8508 10.9008 31.9008 11.8008 31.9008 13.0508C31.9008 14.2508 32.8508 15.2008 34.0508 15.2008C35.2508 15.2008 36.2008 14.3008 36.2008 13.0508C36.2008 11.7508 35.2508 10.9008 34.0508 10.9008ZM34.0508 14.3008C33.4008 14.3008 32.8508 13.7508 32.8508 13.0008C32.8508 12.2508 33.4008 11.7008 34.0508 11.7008C34.7008 11.7008 35.2508 12.2008 35.2508 13.0008C35.2508 13.7508 34.7008 14.3008 34.0508 14.3008ZM29.4008 10.9008C28.2008 10.9008 27.2508 11.8008 27.2508 13.0508C27.2508 14.2508 28.2008 15.2008 29.4008 15.2008C30.6008 15.2008 31.5508 14.3008 31.5508 13.0508C31.5508 11.7508 30.6008 10.9008 29.4008 10.9008ZM29.4008 14.3008C28.7508 14.3008 28.2008 13.7508 28.2008 13.0008C28.2008 12.2508 28.7508 11.7008 29.4008 11.7008C30.0508 11.7008 30.6008 12.2008 30.6008 13.0008C30.6008 13.7508 30.0508 14.3008 29.4008 14.3008ZM23.8508 11.5508V12.4508H26.0008C25.9508 12.9508 25.7508 13.3508 25.5008 13.6008C25.2008 13.9008 24.7008 14.2508 23.8508 14.2508C22.5008 14.2508 21.5008 13.2008 21.5008 11.8508C21.5008 10.5008 22.5508 9.45078 23.8508 9.45078C24.5508 9.45078 25.1008 9.75078 25.5008 10.1008L26.1508 9.45078C25.6008 8.95078 24.9008 8.55078 23.9008 8.55078C22.1008 8.55078 20.5508 10.0508 20.5508 11.8508C20.5508 13.6508 22.1008 15.1508 23.9008 15.1508C24.9008 15.1508 25.6008 14.8508 26.2008 14.2008C26.8008 13.6008 27.0008 12.7508 27.0008 12.1008C27.0008 11.9008 27.0008 11.7008 26.9508 11.5508H23.8508ZM46.5508 12.2508C46.3508 11.7508 45.8508 10.9008 44.7508 10.9008C43.6508 10.9008 42.7508 11.7508 42.7508 13.0508C42.7508 14.2508 43.6508 15.2008 44.8508 15.2008C45.8008 15.2008 46.4008 14.6008 46.6008 14.2508L45.9008 13.7508C45.6508 14.1008 45.3508 14.3508 44.8508 14.3508C44.3508 14.3508 44.0508 14.1508 43.8008 13.7008L46.6508 12.5008L46.5508 12.2508ZM43.6508 12.9508C43.6508 12.1508 44.3008 11.7008 44.7508 11.7008C45.1008 11.7008 45.4508 11.9008 45.5508 12.1508L43.6508 12.9508ZM41.3008 15.0008H42.2508V8.75078H41.3008V15.0008ZM39.8008 11.3508C39.5508 11.1008 39.1508 10.8508 38.6508 10.8508C37.6008 10.8508 36.6008 11.8008 36.6008 13.0008C36.6008 14.2008 37.5508 15.1008 38.6508 15.1008C39.1508 15.1008 39.5508 14.8508 39.7508 14.6008H39.8008V14.9008C39.8008 15.7008 39.3508 16.1508 38.6508 16.1508C38.1008 16.1508 37.7008 15.7508 37.6008 15.4008L36.8008 15.7508C37.0508 16.3008 37.6508 17.0008 38.7008 17.0008C39.8008 17.0008 40.7008 16.3508 40.7008 14.8008V11.0008H39.8008V11.3508ZM38.7008 14.3008C38.0508 14.3008 37.5008 13.7508 37.5008 13.0008C37.5008 12.2508 38.0508 11.7008 38.7008 11.7008C39.3508 11.7008 39.8508 12.2508 39.8508 13.0008C39.8508 13.7508 39.3508 14.3008 38.7008 14.3008ZM50.9008 8.75078H48.6508V15.0008H49.6008V12.6508H50.9008C51.9508 12.6508 52.9508 11.9008 52.9508 10.7008C52.9508 9.50078 51.9508 8.75078 50.9008 8.75078ZM50.9508 11.7508H49.6008V9.60078H50.9508C51.6508 9.60078 52.0508 10.2008 52.0508 10.6508C52.0008 11.2008 51.6008 11.7508 50.9508 11.7508ZM56.7008 10.8508C56.0008 10.8508 55.3008 11.1508 55.0508 11.8008L55.9008 12.1508C56.1008 11.8008 56.4008 11.7008 56.7508 11.7008C57.2508 11.7008 57.7008 12.0008 57.7508 12.5008V12.5508C57.6008 12.4508 57.2008 12.3008 56.8008 12.3008C55.9008 12.3008 55.0008 12.8008 55.0008 13.7008C55.0008 14.5508 55.7508 15.1008 56.5508 15.1008C57.2008 15.1008 57.5008 14.8008 57.7508 14.5008H57.8008V15.0008H58.7008V12.6008C58.6008 11.5008 57.7508 10.8508 56.7008 10.8508ZM56.6008 14.3008C56.3008 14.3008 55.8508 14.1508 55.8508 13.7508C55.8508 13.2508 56.4008 13.1008 56.8508 13.1008C57.2508 13.1008 57.4508 13.2008 57.7008 13.3008C57.6008 13.9008 57.1008 14.3008 56.6008 14.3008ZM61.8508 11.0008L60.8008 13.7008H60.7508L59.6508 11.0008H58.6508L60.3008 14.8008L59.3508 16.9008H60.3008L62.8508 11.0008H61.8508ZM53.4508 15.0008H54.4008V8.75078H53.4508V15.0008Z" fill="white"/>
<path d="M5.19922 3.75C5.04922 3.9 4.94922 4.15 4.94922 4.45V15.5C4.94922 15.8 5.04922 16.05 5.19922 16.2L5.24922 16.25L11.4492 10.05V10V9.95L5.19922 3.75Z" fill="url(#paint0_linear)"/>
<path d="M13.4992 12.1504L11.4492 10.1004V10.0004V9.95039L13.4992 7.90039L13.5492 7.95039L15.9992 9.35039C16.6992 9.75039 16.6992 10.4004 15.9992 10.8004L13.4992 12.1504Z" fill="url(#paint1_linear)"/>
<path d="M13.5492 12.1L11.4492 10L5.19922 16.25C5.44922 16.5 5.79922 16.5 6.24922 16.3L13.5492 12.1Z" fill="url(#paint2_linear)"/>
<path d="M13.5492 7.9003L6.24922 3.7503C5.79922 3.5003 5.44922 3.5503 5.19922 3.8003L11.4492 10.0003L13.5492 7.9003Z" fill="url(#paint3_linear)"/>
<path opacity="0.2" d="M13.5031 12.0508L6.25313 16.1508C5.85313 16.4008 5.50313 16.3508 5.25313 16.1508L5.20312 16.2008L5.25313 16.2508C5.50313 16.4508 5.85313 16.5008 6.25313 16.2508L13.5031 12.0508Z" fill="black"/>
<path opacity="0.12" d="M5.20391 16.1512C5.05391 16.0012 5.00391 15.7512 5.00391 15.4512V15.5012C5.00391 15.8012 5.10391 16.0512 5.25391 16.2012V16.1512H5.20391Z" fill="black"/>
<path opacity="0.12" d="M16 10.65L13.5 12.05L13.55 12.1L16 10.7C16.35 10.5 16.5 10.25 16.5 10C16.5 10.25 16.3 10.45 16 10.65Z" fill="black"/>
<path opacity="0.25" d="M6.25391 3.80018L16.0039 9.35018C16.3039 9.55018 16.5039 9.75018 16.5039 10.0002C16.5039 9.75018 16.3539 9.50018 16.0039 9.30018L6.25391 3.75018C5.55391 3.35018 5.00391 3.70018 5.00391 4.50018V4.55018C5.00391 3.75018 5.55391 3.40018 6.25391 3.80018Z" fill="white"/>
<path d="M20.6523 6.49805V3.49805H21.5523C22.0023 3.49805 22.4023 3.64805 22.6523 3.89805C22.9523 4.19805 23.0523 4.54805 23.0523 4.99805C23.0523 5.44805 22.9023 5.79805 22.6523 6.09805C22.4023 6.34805 22.0023 6.49805 21.5523 6.49805H20.6523ZM21.0523 6.14805H21.6023C21.9523 6.14805 22.2023 6.04805 22.4023 5.84805C22.6023 5.64805 22.7023 5.34805 22.7023 4.99805C22.7023 4.64805 22.6023 4.34805 22.4023 4.14805C22.2023 3.94805 21.9023 3.84805 21.6023 3.84805H21.0523V6.14805Z" fill="white" stroke="white" stroke-width="0.2" stroke-miterlimit="10"/>
<path d="M23.6016 6.49805V3.49805H24.0016V6.49805H23.6016Z" fill="white" stroke="white" stroke-width="0.2" stroke-miterlimit="10"/>
<path d="M25.5539 6.54844C25.3539 6.54844 25.1039 6.49844 24.9039 6.34844C24.7039 6.19844 24.5539 5.99844 24.5039 5.74844L24.8539 5.59844C24.9039 5.74844 25.0039 5.89844 25.1039 5.99844C25.2539 6.09844 25.4039 6.14844 25.5539 6.14844C25.7039 6.14844 25.8539 6.09844 26.0039 5.99844C26.1039 5.89844 26.2039 5.79844 26.2039 5.64844C26.2039 5.49844 26.1539 5.34844 26.0039 5.24844C25.9039 5.14844 25.7039 5.04844 25.4539 4.99844C25.2039 4.89844 25.0039 4.79844 24.8539 4.69844C24.7039 4.54844 24.6539 4.39844 24.6539 4.19844C24.6539 3.99844 24.7539 3.79844 24.9039 3.64844C25.0539 3.49844 25.3039 3.39844 25.5539 3.39844C25.8039 3.39844 26.0039 3.44844 26.1539 3.59844C26.3039 3.74844 26.4039 3.84844 26.4539 3.99844L26.1039 4.14844C26.0539 4.04844 26.0039 3.94844 25.9039 3.89844C25.8039 3.79844 25.6539 3.79844 25.5039 3.79844C25.3539 3.79844 25.2539 3.84844 25.1039 3.89844C25.0539 3.99844 25.0039 4.09844 25.0039 4.24844C25.0039 4.34844 25.0539 4.44844 25.1539 4.54844C25.2539 4.64844 25.4039 4.69844 25.6039 4.74844C25.7539 4.79844 25.8539 4.84844 25.9539 4.89844C26.0539 4.94844 26.1539 4.99844 26.2539 5.09844C26.3539 5.14844 26.4539 5.24844 26.5039 5.39844C26.5539 5.49844 26.6039 5.64844 26.6039 5.79844C26.6039 5.94844 26.5539 6.09844 26.5039 6.19844C26.4539 6.29844 26.3539 6.39844 26.2539 6.44844C26.1039 6.44844 26.0039 6.49844 25.9039 6.49844C25.8039 6.54844 25.6539 6.54844 25.5539 6.54844Z" fill="white" stroke="white" stroke-width="0.2" stroke-miterlimit="10"/>
<path d="M27.5016 6.49805H27.1016V3.49805H28.1016C28.3516 3.49805 28.5516 3.59805 28.7516 3.74805C28.9516 3.89805 29.0516 4.14805 29.0516 4.39805C29.0516 4.64805 28.9516 4.84805 28.7516 5.04805C28.5516 5.19805 28.3516 5.29805 28.1016 5.29805H27.5016V6.49805ZM27.5016 4.89805H28.1516C28.3016 4.89805 28.4516 4.84805 28.5516 4.74805C28.6516 4.64805 28.7016 4.49805 28.7016 4.39805C28.7016 4.24805 28.6516 4.14805 28.5516 4.04805C28.4516 3.94805 28.3016 3.89805 28.1516 3.89805H27.5016V4.89805Z" fill="white" stroke="white" stroke-width="0.2" stroke-miterlimit="10"/>
<path d="M31.9977 6.09922C31.6977 6.39922 31.3477 6.54922 30.8977 6.54922C30.4477 6.54922 30.0977 6.39922 29.7977 6.09922C29.4977 5.79922 29.3477 5.44922 29.3477 4.99922C29.3477 4.54922 29.4977 4.19922 29.7977 3.89922C30.0977 3.59922 30.4477 3.44922 30.8977 3.44922C31.3477 3.44922 31.6977 3.59922 31.9977 3.89922C32.2977 4.19922 32.4477 4.54922 32.4477 4.99922C32.4477 5.44922 32.2977 5.79922 31.9977 6.09922ZM30.0977 5.84922C30.2977 6.04922 30.5977 6.19922 30.8977 6.19922C31.1977 6.19922 31.4977 6.09922 31.6977 5.84922C31.8977 5.64922 32.0477 5.34922 32.0477 4.99922C32.0477 4.64922 31.9477 4.34922 31.6977 4.14922C31.4977 3.94922 31.1977 3.79922 30.8977 3.79922C30.5977 3.79922 30.2977 3.89922 30.0977 4.14922C29.8977 4.34922 29.7477 4.64922 29.7477 4.99922C29.7477 5.34922 29.8477 5.64922 30.0977 5.84922Z" fill="white" stroke="white" stroke-width="0.2" stroke-miterlimit="10"/>
<path d="M33 6.49805V3.49805H33.45L34.9 5.84805V5.24805V3.49805H35.3V6.49805H34.9L33.35 4.04805V4.64805V6.49805H33Z" fill="white" stroke="white" stroke-width="0.2" stroke-miterlimit="10"/>
<path d="M36 6.49805V3.49805H36.4V6.49805H36Z" fill="white" stroke="white" stroke-width="0.2" stroke-miterlimit="10"/>
<path d="M37.0547 6.49805V3.49805H38.1547C38.4047 3.49805 38.6047 3.59805 38.7547 3.74805C38.9047 3.89805 39.0047 4.09805 39.0047 4.34805C39.0047 4.49805 38.9547 4.59805 38.9047 4.74805C38.8547 4.84805 38.7547 4.94805 38.6047 4.99805C38.7547 5.04805 38.8547 5.14805 38.9547 5.24805C39.0547 5.34805 39.1047 5.49805 39.1047 5.69805C39.1047 5.94805 39.0047 6.14805 38.8547 6.29805C38.6547 6.44805 38.4547 6.54805 38.2047 6.54805H37.0547V6.49805ZM37.4547 4.79805H38.1547C38.3047 4.79805 38.4047 4.74805 38.5047 4.64805C38.6047 4.54805 38.6547 4.44805 38.6547 4.34805C38.6547 4.24805 38.5547 4.09805 38.5047 3.99805C38.4047 3.89805 38.3047 3.84805 38.1547 3.84805H37.4547V4.79805ZM37.4547 6.14805H38.2547C38.4047 6.14805 38.5047 6.09805 38.6047 5.99805C38.7047 5.89805 38.7547 5.79805 38.7547 5.64805C38.7547 5.54805 38.7047 5.39805 38.6047 5.29805C38.5047 5.19805 38.4047 5.14805 38.2547 5.14805H37.5047V6.14805H37.4547Z" fill="white" stroke="white" stroke-width="0.2" stroke-miterlimit="10"/>
<path d="M39.6016 6.49805V3.49805H40.0016V6.14805H41.3016V6.49805H39.6016Z" fill="white" stroke="white" stroke-width="0.2" stroke-miterlimit="10"/>
<path d="M43.5508 3.84805H42.2008V4.79805H43.4508V5.14805H42.2008V6.09805H43.5508V6.49805H41.8008V3.49805H43.5508V3.84805Z" fill="white" stroke="white" stroke-width="0.2" stroke-miterlimit="10"/>
<path d="M46.8984 3.84805H45.5484V4.79805H46.7984V5.14805H45.5484V6.09805H46.8984V6.49805H45.1484V3.49805H46.8984V3.84805Z" fill="white" stroke="white" stroke-width="0.2" stroke-miterlimit="10"/>
<path d="M47.5039 6.49805V3.49805H47.9539L49.4039 5.84805V5.24805V3.49805H49.8039V6.49805H49.4039L47.8539 4.04805V4.64805V6.49805H47.5039Z" fill="white" stroke="white" stroke-width="0.2" stroke-miterlimit="10"/>
<defs>
<linearGradient id="paint0_linear" x1="10.8991" y1="4.35485" x2="2.50787" y2="12.7461" gradientUnits="userSpaceOnUse">
<stop stop-color="#00A0FF"/>
<stop offset="0.00657445" stop-color="#00A1FF"/>
<stop offset="0.2601" stop-color="#00BEFF"/>
<stop offset="0.5122" stop-color="#00D2FF"/>
<stop offset="0.7604" stop-color="#00DFFF"/>
<stop offset="1" stop-color="#00E3FF"/>
</linearGradient>
<linearGradient id="paint1_linear" x1="16.9164" y1="10.0011" x2="4.81797" y2="10.0011" gradientUnits="userSpaceOnUse">
<stop stop-color="#FFE000"/>
<stop offset="0.4087" stop-color="#FFBD00"/>
<stop offset="0.7754" stop-color="#FFA500"/>
<stop offset="1" stop-color="#FF9C00"/>
</linearGradient>
<linearGradient id="paint2_linear" x1="12.4127" y1="11.1481" x2="1.03357" y2="22.5272" gradientUnits="userSpaceOnUse">
<stop stop-color="#FF3A44"/>
<stop offset="1" stop-color="#C31162"/>
</linearGradient>
<linearGradient id="paint3_linear" x1="3.64787" y1="0.0884003" x2="8.72917" y2="5.16965" gradientUnits="userSpaceOnUse">
<stop stop-color="#32A071"/>
<stop offset="0.0685" stop-color="#2DA771"/>
<stop offset="0.4762" stop-color="#15CF74"/>
<stop offset="0.8009" stop-color="#06E775"/>
<stop offset="1" stop-color="#00F076"/>
</linearGradient>
</defs>
</svg>
