<svg width="28" height="19" viewBox="0 0 28 19" fill="none" xmlns="http://www.w3.org/2000/svg"><path d="M4.67492 -6.10352e-05L23.3461 -6.10352e-05C25.6438 -6.10352e-05 27.521 1.87713 27.521 4.17486V14.6035C27.521 16.9012 25.6438 18.7784 23.3461 18.7784H4.67492C2.37719 18.7784 0.5 16.9012 0.5 14.6035L0.5 4.17486C0.5 1.87713 2.37719 -6.10352e-05 4.67492 -6.10352e-05ZM12.3319 11.7083L4.7165 11.6886C3.51223 11.6855 3.48297 10.1192 4.68723 10.1223L12.303 10.1423C13.5072 10.1454 13.5357 11.7117 12.3319 11.7083ZM12.2663 14.967L4.65091 14.9474C3.44664 14.9443 3.48297 13.3658 4.68723 13.3684C4.68723 13.3684 11.0987 13.3858 12.303 13.3889C13.5072 13.3919 13.4701 14.9705 12.2663 14.967ZM1.98494 7.78237L2.03323 14.6035C2.03323 16.0548 3.22364 17.2452 4.67492 17.2452L23.4173 17.2601C24.8686 17.2601 26.059 16.0697 26.059 14.6184L26.0107 7.79725L1.98494 7.78237ZM2.01625 4.72123L25.9708 4.72123L25.9878 4.17486C25.9878 2.72358 24.7973 1.53317 23.3461 1.53317L4.67492 1.53317C3.22364 1.53317 2.03323 2.72358 2.03323 4.17486L2.01625 4.72123Z" fill="#2D3338"/></svg>