<?xml version="1.0" encoding="UTF-8"?>
<svg width="120px" height="37px" viewBox="0 0 120 37" version="1.1" xmlns="http://www.w3.org/2000/svg" xmlns:xlink="http://www.w3.org/1999/xlink">
    <!-- Generator: Sketch 51.3 (57544) - http://www.bohemiancoding.com/sketch -->
    <title>LogoPrepago</title>
    <desc>Created with Sketch.</desc>
    <defs></defs>
    <g id="Mobile" stroke="none" stroke-width="1" fill="none" fill-rule="evenodd">
        <g id="LogoPrepago">
            <g id="Group">
                <polygon id="Shape" fill="#D8232A" points="0.153846154 0 0.153846154 24.6875 113.076923 24.6875 119.846154 0"></polygon>
                <polygon id="Shape" fill="#002F87" points="58.1538462 0 51.2307692 24.6875 113.076923 24.6875 119.846154 0"></polygon>
                <polygon id="Shape" points="0.153846154 0 0.153846154 24.6875 113.076923 24.6875 119.846154 0"></polygon>
            </g>
            <path d="M116.5,21 C117.25,21 118,21.6 118,22.5 C118,23.4 117.4,24 116.5,24 C115.6,24 115,23.4 115,22.5 C115,21.6 115.6,21 116.5,21 Z M116.35,21.3 C115.75,21.3 115.15,21.9 115.15,22.5 C115.15,23.1 115.6,23.7 116.35,23.7 C116.95,23.7 117.55,23.1 117.55,22.5 C117.55,21.75 117.1,21.3 116.35,21.3 Z M116.2,23.25 L115.9,23.25 L115.9,21.75 L116.5,21.75 C116.8,21.75 116.95,21.75 116.95,21.9 C117.1,21.9 117.1,22.05 117.1,22.2 C117.1,22.35 116.95,22.5 116.8,22.5 C116.95,22.5 116.95,22.65 117.1,22.8 C117.1,23.1 117.25,23.1 117.25,23.1 L116.8,23.1 C116.8,23.1 116.65,22.95 116.65,22.65 C116.65,22.5 116.5,22.35 116.35,22.35 L116.2,22.35 L116.2,23.25 Z M116.2,22.35 L116.35,22.35 C116.5,22.35 116.8,22.35 116.8,22.05 C116.8,21.9 116.65,21.75 116.5,21.75 C116.35,21.75 116.35,21.75 116.35,21.75 L116.35,22.35 L116.2,22.35 Z" id="Shape" fill="#020202" fill-rule="nonzero"></path>
            <path d="M24.6857143,5.78181818 L23.2971429,10.2636364 L26.2285714,10.2636364 C26.8457143,10.2636364 27.3085714,10.1090909 27.6171429,9.95454545 C28.2342857,9.64545455 28.6971429,9.02727273 29.0057143,8.1 C29.3142857,7.01818182 29.3142857,6.4 28.8514286,6.09090909 C28.5428571,5.93636364 28.2342857,5.78181818 27.6171429,5.78181818 L24.6857143,5.78181818 Z M0,7.63636364 L21.4457143,7.63636364 L22.9885714,3 L29.0057143,3 C29.9314286,3 30.5485714,3.15454545 30.8571429,3.46363636 C31.32,3.77272727 31.4742857,4.08181818 31.7828571,4.54545455 C31.9371429,5.00909091 31.9371429,5.47272727 31.9371429,5.93636364 C31.9371429,6.4 31.7828571,7.01818182 31.6285714,7.63636364 C31.32,8.40909091 31.0114286,9.18181818 30.5485714,9.95454545 C30.0857143,10.7272727 29.3142857,11.1909091 28.5428571,11.5 C29.0057143,11.8090909 29.3142857,12.2727273 29.3142857,12.8909091 C29.3142857,13.5090909 29.3142857,14.2818182 28.8514286,15.5181818 L28.5428571,16.6 C28.3885714,17.3727273 28.2342857,17.8363636 28.08,18.1454545 C28.08,18.6090909 28.08,18.9181818 28.2342857,19.0727273 L28.08,19.5363636 L25.3028571,19.5363636 C25.3028571,19.2272727 25.3028571,18.9181818 25.4571429,18.6090909 C25.4571429,18.1454545 25.6114286,17.6818182 25.7657143,17.2181818 L26.2285714,15.6727273 C26.5371429,14.5909091 26.5371429,13.9727273 26.3828571,13.5090909 C26.2285714,13.2 25.7657143,13.0454545 24.9942857,13.0454545 L22.3714286,13.0454545 L20.52,19.5363636 L18.2057143,19.5363636 L0,19.5363636 L5.48132968e-15,17.5272727 L18.5142857,17.5272727 L18.9771429,16.1363636 L5.48132968e-15,16.1363636 L5.48132968e-15,14.1272727 L19.5942857,14.1272727 L19.9028571,12.8909091 L1.09626594e-14,12.8909091 L1.09626594e-14,10.8818182 L20.52,10.8818182 L20.8285714,9.64545455 L1.09626594e-14,9.64545455 L0,7.63636364 Z M35.7942857,10.2636364 C35.3314286,10.7272727 34.8685714,11.3454545 34.56,12.1181818 L38.2628571,12.1181818 C38.4171429,11.3454545 38.4171429,10.5727273 38.2628571,10.2636364 C38.1085714,9.8 37.6457143,9.64545455 37.1828571,9.64545455 C36.72,9.64545455 36.1028571,9.8 35.7942857,10.2636364 Z M39.96,7.48181818 C40.4228571,7.79090909 40.7314286,8.40909091 40.8857143,9.33636364 C41.04,10.1090909 41.04,10.8818182 40.8857143,11.8090909 C40.7314286,12.4272727 40.5771429,13.2 40.2685714,14.2818182 L33.9428571,14.2818182 C33.6342857,15.5181818 33.6342857,16.4454545 34.0971429,16.9090909 C34.4057143,17.2181818 34.7142857,17.3727273 35.1771429,17.3727273 C35.64,17.3727273 36.1028571,17.2181818 36.5657143,16.7545455 C36.72,16.6 37.0285714,16.2909091 37.3371429,15.9818182 L39.8057143,15.9818182 C39.4971429,16.7545455 39.0342857,17.5272727 38.2628571,18.1454545 C37.1828571,19.3818182 35.7942857,20 34.4057143,20 C33.1714286,20 32.4,19.5363636 31.7828571,18.4545455 C31.1657143,17.3727273 31.1657143,15.8272727 31.9371429,13.5090909 C32.5542857,11.3454545 33.48,9.8 34.56,8.56363636 C35.64,7.48181818 36.8742857,6.86363636 38.2628571,6.86363636 C38.7257143,6.86363636 39.3428571,7.17272727 39.96,7.48181818 Z M49.2171429,7.48181818 C49.5257143,7.79090909 49.8342857,8.25454545 49.8342857,8.87272727 L51.5314286,3 L54,3 L49.0628571,19.5363636 L46.7485714,19.5363636 L47.2114286,17.8363636 C46.5942857,18.6090909 46.1314286,19.0727273 45.5142857,19.3818182 C45.0514286,19.6909091 44.4342857,19.8454545 43.6628571,19.8454545 C42.5828571,19.8454545 41.8114286,19.2272727 41.5028571,18.1454545 C41.1942857,16.9090909 41.1942857,15.5181818 41.6571429,13.6636364 C42.2742857,11.5 43.2,9.95454545 44.1257143,8.71818182 C45.2057143,7.48181818 46.2857143,6.86363636 47.52,6.86363636 C48.4457143,7.01818182 48.7542857,7.17272727 49.2171429,7.48181818 Z M47.2114286,16.1363636 C47.8285714,15.5181818 48.1371429,14.5909091 48.4457143,13.5090909 C48.9085714,11.9636364 48.9085714,10.8818182 48.6,10.2636364 C48.4457143,9.8 47.9828571,9.64545455 47.52,9.64545455 C46.7485714,9.64545455 46.1314286,9.95454545 45.6685714,10.7272727 C45.2057143,11.5 44.7428571,12.2727273 44.4342857,13.3545455 C44.1257143,14.4363636 43.9714286,15.3636364 44.1257143,16.1363636 C44.28,16.7545455 44.7428571,17.2181818 45.36,17.2181818 C45.9771429,17.2181818 46.5942857,16.9090909 47.2114286,16.1363636 Z" id="Shape" fill="#FFFFFF" fill-rule="nonzero"></path>
            <path d="M107.131679,12.1320755 C107.595127,12.1320755 107.904092,11.9811321 108.058574,11.8301887 C108.367539,11.6792453 108.676504,11.3773585 108.676504,10.9245283 C108.830986,10.4716981 108.830986,10.1698113 108.676504,9.86792453 C108.522021,9.71698113 108.213056,9.56603774 107.749609,9.56603774 C107.286162,9.56603774 106.822714,9.71698113 106.513749,10.1698113 C106.204785,10.4716981 106.050302,10.9245283 105.89582,11.3773585 L103.887548,11.3773585 C104.196513,10.3207547 104.65996,9.41509434 105.123407,8.81132075 C105.89582,7.75471698 106.977197,7.30188679 108.367539,7.30188679 C109.294434,7.30188679 109.912363,7.60377358 110.530293,8.05660377 C110.993741,8.50943396 111.148223,9.56603774 110.839258,10.9245283 L109.294434,16.3584906 C109.139951,16.8113208 109.139951,17.2641509 108.985469,17.7169811 C108.830986,18.1698113 108.830986,18.4716981 108.830986,18.4716981 C108.830986,18.6226415 108.985469,18.7735849 108.985469,18.7735849 L108.830986,19.2264151 L106.513749,19.2264151 C106.513749,18.9245283 106.513749,18.7735849 106.513749,18.6226415 C106.513749,18.4716981 106.513749,18.1698113 106.668232,17.8679245 C106.204785,18.3207547 105.89582,18.7735849 105.432372,19.0754717 C104.814443,19.5283019 104.350995,19.6792453 103.733065,19.6792453 C102.960653,19.6792453 102.497206,19.3773585 102.188241,18.7735849 C101.879276,18.1698113 101.879276,17.2641509 102.188241,16.2075472 C102.651688,14.6981132 103.269618,13.6415094 104.196513,13.0377358 C104.65996,12.7358491 105.432372,12.4339623 106.204785,12.2830189 L107.131679,12.1320755 Z M107.904092,13.6415094 C107.749609,13.7924528 107.595127,13.7924528 107.440644,13.9433962 C107.286162,13.9433962 107.131679,14.0943396 106.822714,14.0943396 L106.359267,14.245283 C105.89582,14.3962264 105.586855,14.5471698 105.27789,14.6981132 C104.814443,15 104.65996,15.4528302 104.505478,16.0566038 C104.350995,16.6603774 104.350995,16.9622642 104.505478,17.2641509 C104.65996,17.5660377 104.814443,17.5660377 105.123407,17.5660377 C105.586855,17.5660377 106.050302,17.4150943 106.513749,16.9622642 C106.977197,16.509434 107.440644,15.9056604 107.749609,14.8490566 L107.904092,13.6415094 Z M104.04203,7.1509434 L104.196513,7.1509434 L103.4241,10.4716981 C103.269618,10.4716981 103.115136,10.4716981 103.115136,10.4716981 C102.960653,10.4716981 102.960653,10.4716981 102.806171,10.4716981 C102.033758,10.4716981 101.261346,10.9245283 100.797899,11.6792453 C100.488934,11.9811321 100.179969,12.7358491 100.025486,13.6415094 L98.480662,19.3773585 L96.3179076,19.3773585 L99.5620391,7.45283019 L101.570311,7.45283019 L100.952381,9.56603774 C101.415829,8.81132075 101.879276,8.20754717 102.188241,7.90566038 C102.806171,7.45283019 103.269618,7.1509434 104.04203,7.1509434 Z M96.9358374,8.81132075 C97.2448023,9.86792453 97.2448023,11.3773585 96.6268725,13.3396226 C96.0089427,15.4528302 95.3910129,17.1132075 94.4641182,18.1698113 C93.5372235,19.2264151 92.6103288,19.8301887 91.5289516,19.8301887 C90.9110218,19.8301887 90.4475744,19.5283019 90.1386095,19.0754717 C89.9841271,18.7735849 89.8296446,18.4716981 89.8296446,17.8679245 L88.4393025,23 L86.4310307,23 L90.6020569,7.45283019 L92.6103288,7.45283019 L92.1468814,9.26415094 C92.4558463,8.81132075 92.9192937,8.35849057 93.2282586,8.05660377 C93.8461884,7.45283019 94.4641182,7.30188679 95.082048,7.30188679 C95.8544603,7.1509434 96.6268725,7.75471698 96.9358374,8.81132075 Z M94.7730831,11.0754717 C94.6186006,10.3207547 94.3096357,10.0188679 93.6917059,10.0188679 C92.9192937,10.0188679 92.3013639,10.6226415 91.683434,11.6792453 C91.3744691,12.2830189 91.0655042,13.0377358 90.9110218,13.7924528 C90.6020569,15.1509434 90.6020569,16.2075472 90.9110218,16.6603774 C91.0655042,16.9622642 91.3744691,17.1132075 91.8379165,17.1132075 C92.4558463,17.1132075 92.9192937,16.8113208 93.382741,16.0566038 C93.8461884,15.4528302 94.3096357,14.5471698 94.6186006,13.3396226 C94.7730831,12.5849057 94.7730831,11.6792453 94.7730831,11.0754717 Z M87.3579254,7.60377358 C87.6668903,7.75471698 87.8213727,8.20754717 87.9758552,8.66037736 C88.1303376,9.11320755 88.1303376,9.56603774 87.9758552,10.1698113 C87.9758552,10.6226415 87.8213727,11.2264151 87.5124078,11.9811321 L85.5041359,19.5283019 L83.3413816,19.5283019 L85.3496535,11.9811321 C85.5041359,11.5283019 85.5041359,11.2264151 85.5041359,10.9245283 C85.5041359,10.3207547 85.195171,10.0188679 84.7317237,10.0188679 C84.1137939,10.0188679 83.6503465,10.3207547 83.1868992,11.0754717 C83.0324167,11.5283019 82.7234518,11.9811321 82.7234518,12.4339623 L80.8696624,19.5283019 L78.706908,19.5283019 L80.5606975,12.4339623 C80.7151799,11.6792453 80.8696624,11.2264151 80.8696624,10.9245283 C80.8696624,10.3207547 80.5606975,10.0188679 80.0972501,10.0188679 C79.4793203,10.0188679 79.0158729,10.3207547 78.706908,10.9245283 C78.5524256,11.2264151 78.3979431,11.6792453 78.0889782,12.4339623 L76.2351888,19.6792453 L74.0724344,19.6792453 L77.4710484,7.45283019 L79.4793203,7.45283019 L79.0158729,9.26415094 C79.4793203,8.66037736 79.7882852,8.20754717 80.0972501,7.90566038 C80.5606975,7.45283019 81.1786273,7.1509434 81.7965571,7.1509434 C82.4144869,7.1509434 82.8779342,7.30188679 83.0324167,7.75471698 C83.1868992,8.05660377 83.3413816,8.66037736 83.3413816,9.11320755 C83.804829,8.35849057 84.2682763,7.90566038 84.7317237,7.60377358 C85.195171,7.30188679 85.8131008,7.1509434 86.2765482,7.1509434 C86.894478,7.1509434 87.2034429,7.30188679 87.3579254,7.60377358 Z M72.3731275,18.0188679 C71.4462328,19.2264151 70.2103731,19.8301887 68.8200311,19.8301887 C67.429689,19.8301887 66.6572767,19.2264151 66.1938294,18.0188679 C65.8848645,16.8113208 65.8848645,15.3018868 66.3483118,13.490566 C66.8117592,11.8301887 67.5841714,10.3207547 68.5110662,8.96226415 C69.5924433,7.75471698 70.6738205,7 72.0641626,7 C73.4545046,7 74.2269169,7.60377358 74.5358818,8.96226415 C74.8448467,10.1698113 74.8448467,11.6792453 74.3813994,13.490566 C74.2269169,15.1509434 73.4545046,16.6603774 72.3731275,18.0188679 Z M71.2917503,16.2075472 C71.7551977,15.6037736 72.218645,14.6981132 72.5276099,13.490566 C72.8365748,12.2830189 72.9910573,11.3773585 72.8365748,10.7735849 C72.6820924,10.1698113 72.3731275,9.86792453 71.7551977,9.86792453 C71.1372678,9.86792453 70.519338,10.1698113 70.0558907,10.7735849 C69.5924433,11.3773585 69.128996,12.2830189 68.8200311,13.490566 C68.5110662,14.6981132 68.3565837,15.6037736 68.5110662,16.2075472 C68.6655486,16.8113208 68.9745135,17.1132075 69.5924433,17.1132075 C70.2103731,17.2641509 70.6738205,16.8113208 71.2917503,16.2075472 Z M64.031075,11.8301887 C64.1855575,11.3773585 64.1855575,10.9245283 64.031075,10.6226415 C63.8765926,10.1698113 63.5676277,9.86792453 63.1041803,9.86792453 C62.331768,9.86792453 61.7138382,10.3207547 61.2503909,11.3773585 C60.941426,11.9811321 60.6324611,12.7358491 60.4779786,13.6415094 C60.1690137,14.5471698 60.1690137,15.1509434 60.1690137,15.754717 C60.1690137,16.8113208 60.4779786,17.2641509 61.0959084,17.2641509 C61.5593558,17.2641509 62.0228031,17.1132075 62.331768,16.6603774 C62.640733,16.2075472 62.9496979,15.754717 63.1041803,15.1509434 L65.2669346,15.1509434 C64.9579697,16.0566038 64.4945224,16.9622642 63.8765926,17.8679245 C62.7952154,19.2264151 61.7138382,19.9811321 60.4779786,19.9811321 C59.242119,19.9811321 58.4697067,19.3773585 58.1607418,18.3207547 C57.8517769,17.1132075 58.0062594,15.754717 58.4697067,13.9433962 C59.0876365,11.8301887 59.7055664,10.3207547 60.7869435,9.11320755 C61.7138382,7.90566038 62.7952154,7.45283019 64.031075,7.45283019 C64.9579697,7.45283019 65.730382,7.75471698 66.1938294,8.50943396 C66.6572767,9.11320755 66.6572767,10.3207547 66.3483118,12.1320755 L64.031075,12.1320755 L64.031075,11.8301887 Z" id="Shape" fill="#FFFFFF"></path>
            <path d="M68.5,30 C70.1176471,30 71,30.9545455 71,32.3863636 C71,33.8181818 69.9705882,34.7727273 68.5,34.7727273 L67.6176471,34.7727273 L67.6176471,37 L66,37 L66,30 L68.5,30 Z M68.5,33.1818182 C69.0882353,33.1818182 69.5294118,32.8636364 69.5294118,32.3863636 C69.5294118,31.9090909 69.2352941,31.5909091 68.5,31.5909091 L67.6176471,31.5909091 L67.6176471,33.1818182 L68.5,33.1818182 Z" id="Shape" fill="#000000" fill-rule="nonzero"></path>
            <path d="M77,37 L75.6666667,34.7727273 L74.8333333,34.7727273 L74.8333333,37 L73,37 L73,30 L75.6666667,30 C77.5,30 78.6666667,30.9545455 78.6666667,32.3863636 C78.6666667,33.3409091 78.1666667,33.9772727 77.3333333,34.4545455 L79,37 L77,37 Z M74.6666667,33.1818182 L75.8333333,33.1818182 C76.5,33.1818182 76.6666667,32.7045455 76.6666667,32.3863636 C76.6666667,32.0681818 76.3333333,31.5909091 75.8333333,31.5909091 L74.6666667,31.5909091 L74.6666667,33.1818182 Z" id="Shape" fill="#000000" fill-rule="nonzero"></path>
            <polygon id="Shape" fill="#000000" fill-rule="nonzero" points="85 35.4090909 85 37 80 37 80 30 85 30 85 31.5909091 81.71875 31.5909091 81.71875 32.7045455 84.375 32.7045455 84.375 34.1363636 81.71875 34.1363636 81.71875 35.4090909"></polygon>
            <path d="M88.5,30 C90.1176471,30 91,30.9545455 91,32.3863636 C91,33.8181818 89.9705882,34.7727273 88.5,34.7727273 L87.6176471,34.7727273 L87.6176471,37 L86,37 L86,30 L88.5,30 Z M88.5,33.1818182 C89.0882353,33.1818182 89.5294118,32.8636364 89.5294118,32.3863636 C89.5294118,31.9090909 89.2352941,31.5909091 88.5,31.5909091 L87.6176471,31.5909091 L87.6176471,33.1818182 L88.5,33.1818182 Z" id="Shape" fill="#000000" fill-rule="nonzero"></path>
            <path d="M95.7173913,35.8863636 L93.1304348,35.8863636 L92.673913,37 L91,37 L93.7391304,30 L95.2608696,30 L98,37 L96.326087,37 L95.7173913,35.8863636 Z M95.1086957,34.4545455 L94.6521739,33.0227273 C94.5,32.5454545 94.3478261,32.0681818 94.3478261,32.0681818 C94.3478261,32.0681818 94.1956522,32.7045455 94.0434783,33.0227273 L93.5869565,34.4545455 L95.1086957,34.4545455 Z" id="Shape" fill="#000000" fill-rule="nonzero"></path>
            <path d="M103.568182,36.3913043 C103.25,36.6956522 102.454545,37 101.659091,37 C99.5909091,37 98,35.4782609 98,33.5 C98,31.5217391 99.5909091,30 101.659091,30 C103.090909,30 104.204545,30.7608696 104.840909,31.826087 L103.25,32.2826087 C102.931818,31.826087 102.295455,31.673913 101.818182,31.673913 C100.704545,31.673913 99.9090909,32.4347826 99.9090909,33.5 C99.9090909,34.7173913 100.704545,35.4782609 101.818182,35.4782609 C102.931818,35.4782609 103.409091,34.8695652 103.568182,34.4130435 L101.659091,34.4130435 L101.659091,33.0434783 L105,33.0434783 L105,36.8478261 L103.568182,36.8478261 C103.568182,36.3913043 103.568182,36.3913043 103.568182,36.3913043 Z" id="Shape" fill="#000000" fill-rule="nonzero"></path>
            <path d="M109.5,30 C111.478261,30 113,31.5217391 113,33.5 C113,35.4782609 111.478261,37 109.5,37 C107.521739,37 106,35.4782609 106,33.5 C106.152174,31.5217391 107.673913,30 109.5,30 Z M109.5,35.4782609 C110.565217,35.4782609 111.326087,34.7173913 111.326087,33.6521739 C111.326087,32.5869565 110.565217,31.826087 109.5,31.826087 C108.434783,31.826087 107.673913,32.5869565 107.673913,33.6521739 C107.826087,34.5652174 108.434783,35.4782609 109.5,35.4782609 Z" id="Shape" fill="#000000" fill-rule="nonzero"></path>
        </g>
    </g>
</svg>